<!-- Generator: Adobe Illustrator 22.0.0, SVG Export Plug-In  -->
<svg version="1.1"
	 xmlns="http://www.w3.org/2000/svg" xmlns:xlink="http://www.w3.org/1999/xlink" xmlns:a="http://ns.adobe.com/AdobeSVGViewerExtensions/3.0/"
	 x="0px" y="0px" width="6.546px" height="6.546px" viewBox="0 0 6.546 6.546" style="enable-background:new 0 0 6.546 6.546;"
	 xml:space="preserve">
<style type="text/css">
	.st0{fill:#FFFFFF;}
	.st1{fill-rule:evenodd;clip-rule:evenodd;fill:#FFFFFF;}
</style>
<defs>
</defs>
<g>
	<g>
		<g>
			<path class="st0" d="M3.272,6.546C1.467,6.546,0,5.078,0,3.273S1.467,0,3.272,0c1.806,0,3.275,1.469,3.275,3.273
				S5.078,6.546,3.272,6.546z M3.272,0.43c-1.566,0-2.841,1.274-2.841,2.843c0,1.566,1.275,2.843,2.841,2.843
				c1.569,0,2.845-1.277,2.845-2.843C6.116,1.704,4.841,0.43,3.272,0.43z"/>
		</g>
	</g>
	<g>
		<path class="st1" d="M4.5,1.613c-0.815,0-1.635,0-2.452,0c-0.291,0-0.44,0.151-0.44,0.444c0,0.403,0,0.81,0,1.216s0,0.82,0,1.23
			c0,0.279,0.155,0.434,0.43,0.434c0.822,0,1.64,0,2.461,0c0.284,0,0.437-0.155,0.437-0.44c0-0.817,0-1.63,0-2.446
			C4.937,1.764,4.784,1.613,4.5,1.613z M4.229,1.986c0.329,0,0.329,0,0.329,0.333c0,0.323,0,0.323-0.323,0.323
			c-0.329,0-0.329,0-0.329-0.329C3.907,1.986,3.907,1.986,4.229,1.986z M3.275,2.628c0.348,0,0.645,0.299,0.642,0.645
			C3.913,3.629,3.614,3.925,3.265,3.918c-0.35-0.007-0.647-0.306-0.639-0.652C2.635,2.917,2.927,2.628,3.275,2.628z M4.559,4.362
			C4.557,4.517,4.515,4.557,4.36,4.557c-0.363,0-0.726,0-1.089,0c-0.361,0-0.724,0-1.087,0c-0.153,0-0.196-0.04-0.196-0.195
			c0-0.403,0.003-0.81-0.005-1.213c0-0.114,0.032-0.141,0.14-0.138c0.151,0.013,0.155,0.007,0.136,0.151
			C2.199,3.68,2.556,4.177,3.065,4.278c0.521,0.101,1.044-0.215,1.188-0.716c0.044-0.155,0.054-0.319,0.022-0.477
			C4.263,3.028,4.278,3.018,4.328,3.018c0.23-0.017,0.23-0.024,0.23,0.215C4.559,3.606,4.559,3.986,4.559,4.362z"/>
	</g>
</g>
</svg>