<!-- Generator: Adobe Illustrator 22.0.1, SVG Export Plug-In  -->
<svg version="1.1"
	 xmlns="http://www.w3.org/2000/svg" xmlns:xlink="http://www.w3.org/1999/xlink" xmlns:a="http://ns.adobe.com/AdobeSVGViewerExtensions/3.0/"
	 x="0px" y="0px" width="709.924px" height="130.901px" viewBox="0 0 709.924 130.901"
	 style="enable-background:new 0 0 709.924 130.901;" xml:space="preserve">
<style type="text/css">
	.st0{fill:none;}
	.st1{fill:#5BBAEA;}
	.st2{font-family:'MyriadPro-Regular';}
	.st3{font-size:22px;}
	.st4{letter-spacing:3;}
	.st5{letter-spacing:1;}
</style>
<defs>
</defs>
<g>
	<rect x="22.828" y="24.607" class="st0" width="667" height="106.294"/>
	<path d="M37.174,32.658c0,5.104-3.103,7.811-6.887,7.811c-3.917,0-6.667-3.037-6.667-7.525c0-4.708,2.927-7.789,6.887-7.789
		C34.556,25.155,37.174,28.257,37.174,32.658z M25.667,32.9c0,3.168,1.716,6.007,4.731,6.007c3.036,0,4.752-2.794,4.752-6.161
		c0-2.949-1.54-6.029-4.73-6.029C27.251,26.717,25.667,29.644,25.667,32.9z"/>
	<path d="M39.592,32.9c0-1.254-0.022-2.332-0.088-3.322h1.694l0.066,2.09h0.088c0.484-1.43,1.65-2.333,2.948-2.333
		c0.22,0,0.374,0.022,0.55,0.066v1.826c-0.198-0.044-0.396-0.066-0.66-0.066c-1.364,0-2.333,1.034-2.597,2.486
		c-0.044,0.264-0.088,0.572-0.088,0.902v5.677h-1.914V32.9z"/>
	<path d="M49.03,26.585c0.022,0.66-0.462,1.188-1.232,1.188c-0.682,0-1.166-0.528-1.166-1.188c0-0.682,0.506-1.21,1.21-1.21
		C48.568,25.375,49.03,25.903,49.03,26.585z M46.874,40.227V29.578h1.936v10.649H46.874z"/>
	<path d="M53.1,35.255c0.044,2.618,1.716,3.696,3.652,3.696c1.386,0,2.222-0.242,2.948-0.55l0.33,1.386
		c-0.682,0.308-1.848,0.66-3.542,0.66c-3.278,0-5.237-2.156-5.237-5.369c0-3.212,1.893-5.743,4.995-5.743
		c3.476,0,4.4,3.059,4.4,5.017c0,0.396-0.044,0.704-0.066,0.902H53.1z M58.777,33.868c0.022-1.232-0.506-3.146-2.685-3.146
		c-1.958,0-2.816,1.804-2.97,3.146H58.777z"/>
	<path d="M63.044,32.46c0-1.1-0.022-2.002-0.088-2.882h1.716l0.11,1.76h0.044c0.528-1.012,1.76-2.002,3.521-2.002
		c1.474,0,3.762,0.88,3.762,4.533v6.359h-1.936v-6.139c0-1.716-0.638-3.146-2.464-3.146c-1.276,0-2.267,0.902-2.597,1.98
		c-0.088,0.242-0.132,0.572-0.132,0.902v6.403h-1.936V32.46z"/>
	<path d="M77.498,26.519v3.059h2.772v1.474h-2.772v5.743c0,1.32,0.374,2.068,1.452,2.068c0.506,0,0.88-0.066,1.122-0.132
		l0.088,1.452c-0.374,0.154-0.968,0.264-1.716,0.264c-0.902,0-1.628-0.286-2.09-0.814c-0.55-0.572-0.748-1.518-0.748-2.772v-5.809
		h-1.65v-1.474h1.65v-2.552L77.498,26.519z"/>
	<path d="M88.344,40.227l-0.154-1.342h-0.066c-0.594,0.836-1.738,1.584-3.257,1.584c-2.156,0-3.256-1.519-3.256-3.059
		c0-2.574,2.289-3.982,6.403-3.96v-0.22c0-0.88-0.242-2.464-2.42-2.464c-0.99,0-2.024,0.308-2.772,0.792l-0.44-1.276
		c0.88-0.572,2.157-0.946,3.499-0.946c3.257,0,4.049,2.222,4.049,4.356v3.983c0,0.924,0.044,1.826,0.176,2.552H88.344z
		 M88.059,34.793c-2.112-0.044-4.511,0.33-4.511,2.398c0,1.254,0.836,1.849,1.826,1.849c1.386,0,2.266-0.88,2.574-1.782
		c0.066-0.198,0.11-0.418,0.11-0.616V34.793z"/>
	<path d="M93.052,32.9c0-1.254-0.022-2.332-0.088-3.322h1.694l0.066,2.09h0.088c0.484-1.43,1.65-2.333,2.948-2.333
		c0.22,0,0.374,0.022,0.55,0.066v1.826c-0.198-0.044-0.396-0.066-0.66-0.066c-1.364,0-2.333,1.034-2.597,2.486
		c-0.044,0.264-0.088,0.572-0.088,0.902v5.677h-1.914V32.9z"/>
	<path d="M113.887,40.227l-0.154-1.342h-0.066c-0.594,0.836-1.738,1.584-3.257,1.584c-2.156,0-3.256-1.519-3.256-3.059
		c0-2.574,2.289-3.982,6.403-3.96v-0.22c0-0.88-0.242-2.464-2.42-2.464c-0.99,0-2.024,0.308-2.772,0.792l-0.44-1.276
		c0.88-0.572,2.156-0.946,3.499-0.946c3.257,0,4.049,2.222,4.049,4.356v3.983c0,0.924,0.044,1.826,0.176,2.552H113.887z
		 M113.601,34.793c-2.112-0.044-4.51,0.33-4.51,2.398c0,1.254,0.836,1.849,1.826,1.849c1.386,0,2.266-0.88,2.574-1.782
		c0.066-0.198,0.11-0.418,0.11-0.616V34.793z"/>
	<path d="M126.339,24.605h1.936v15.622h-1.936V24.605z"/>
	<path d="M141.168,34.815c0,3.938-2.729,5.655-5.303,5.655c-2.882,0-5.105-2.112-5.105-5.479c0-3.564,2.333-5.655,5.281-5.655
		C139.1,29.336,141.168,31.558,141.168,34.815z M132.719,34.924c0,2.333,1.342,4.093,3.234,4.093c1.848,0,3.234-1.738,3.234-4.137
		c0-1.804-0.902-4.093-3.19-4.093C133.709,30.788,132.719,32.9,132.719,34.924z"/>
	<path d="M143.345,38.247c0.572,0.374,1.584,0.771,2.552,0.771c1.408,0,2.068-0.704,2.068-1.584c0-0.924-0.55-1.43-1.98-1.958
		c-1.914-0.682-2.816-1.738-2.816-3.015c0-1.716,1.386-3.125,3.675-3.125c1.078,0,2.024,0.308,2.618,0.66l-0.484,1.408
		c-0.418-0.264-1.188-0.616-2.178-0.616c-1.145,0-1.782,0.66-1.782,1.452c0,0.88,0.638,1.276,2.024,1.804
		c1.849,0.704,2.794,1.628,2.794,3.213c0,1.87-1.452,3.19-3.982,3.19c-1.166,0-2.244-0.286-2.993-0.726L143.345,38.247z"/>
	<path d="M160.065,33.054c0-1.364-0.044-2.464-0.088-3.477h1.738l0.088,1.826h0.044c0.792-1.298,2.046-2.068,3.784-2.068
		c2.575,0,4.511,2.178,4.511,5.413c0,3.829-2.332,5.721-4.841,5.721c-1.408,0-2.64-0.616-3.278-1.672h-0.044v5.787h-1.914V33.054z
		 M161.979,35.893c0,0.286,0.044,0.55,0.088,0.792c0.352,1.342,1.519,2.266,2.904,2.266c2.046,0,3.235-1.672,3.235-4.114
		c0-2.134-1.123-3.961-3.168-3.961c-1.32,0-2.553,0.946-2.927,2.398c-0.066,0.242-0.132,0.528-0.132,0.792V35.893z"/>
	<path d="M178.479,40.227l-0.154-1.342h-0.066c-0.594,0.836-1.738,1.584-3.257,1.584c-2.156,0-3.256-1.519-3.256-3.059
		c0-2.574,2.289-3.982,6.403-3.96v-0.22c0-0.88-0.242-2.464-2.42-2.464c-0.99,0-2.024,0.308-2.772,0.792l-0.44-1.276
		c0.88-0.572,2.156-0.946,3.499-0.946c3.257,0,4.049,2.222,4.049,4.356v3.983c0,0.924,0.044,1.826,0.176,2.552H178.479z
		 M178.193,34.793c-2.112-0.044-4.51,0.33-4.51,2.398c0,1.254,0.836,1.849,1.826,1.849c1.386,0,2.266-0.88,2.574-1.782
		c0.066-0.198,0.11-0.418,0.11-0.616V34.793z"/>
	<path d="M192.384,24.605v12.872c0,0.946,0.022,2.024,0.088,2.75h-1.738l-0.088-1.848h-0.044c-0.594,1.188-1.893,2.09-3.631,2.09
		c-2.574,0-4.555-2.178-4.555-5.413c-0.022-3.542,2.179-5.721,4.775-5.721c1.628,0,2.729,0.77,3.212,1.628h0.044v-6.359H192.384z
		 M190.448,33.912c0-0.242-0.022-0.572-0.088-0.814c-0.286-1.232-1.342-2.245-2.794-2.245c-2.002,0-3.19,1.76-3.19,4.115
		c0,2.156,1.056,3.938,3.146,3.938c1.298,0,2.486-0.858,2.838-2.31c0.066-0.264,0.088-0.528,0.088-0.836V33.912z"/>
	<path d="M195.595,32.9c0-1.254-0.022-2.332-0.088-3.322h1.694l0.066,2.09h0.088c0.484-1.43,1.65-2.333,2.948-2.333
		c0.22,0,0.374,0.022,0.55,0.066v1.826c-0.198-0.044-0.396-0.066-0.66-0.066c-1.364,0-2.333,1.034-2.597,2.486
		c-0.044,0.264-0.088,0.572-0.088,0.902v5.677h-1.914V32.9z"/>
	<path d="M203.647,35.255c0.044,2.618,1.716,3.696,3.652,3.696c1.386,0,2.222-0.242,2.948-0.55l0.33,1.386
		c-0.682,0.308-1.848,0.66-3.542,0.66c-3.278,0-5.237-2.156-5.237-5.369c0-3.212,1.893-5.743,4.995-5.743
		c3.476,0,4.4,3.059,4.4,5.017c0,0.396-0.044,0.704-0.066,0.902H203.647z M209.324,33.868c0.022-1.232-0.506-3.146-2.685-3.146
		c-1.958,0-2.816,1.804-2.97,3.146H209.324z"/>
	<path d="M213.327,38.247c0.572,0.374,1.584,0.771,2.552,0.771c1.408,0,2.068-0.704,2.068-1.584c0-0.924-0.55-1.43-1.98-1.958
		c-1.914-0.682-2.816-1.738-2.816-3.015c0-1.716,1.386-3.125,3.675-3.125c1.078,0,2.024,0.308,2.618,0.66l-0.484,1.408
		c-0.418-0.264-1.188-0.616-2.178-0.616c-1.145,0-1.782,0.66-1.782,1.452c0,0.88,0.638,1.276,2.024,1.804
		c1.849,0.704,2.794,1.628,2.794,3.213c0,1.87-1.452,3.19-3.982,3.19c-1.166,0-2.244-0.286-2.993-0.726L213.327,38.247z"/>
	<path d="M220.807,42.934c0.484-1.298,1.078-3.653,1.32-5.259l2.156-0.22c-0.506,1.87-1.474,4.313-2.09,5.347L220.807,42.934z"/>
	<path d="M243.557,24.605v12.872c0,0.946,0.022,2.024,0.088,2.75h-1.738l-0.088-1.848h-0.044c-0.594,1.188-1.893,2.09-3.631,2.09
		c-2.574,0-4.555-2.178-4.555-5.413c-0.022-3.542,2.179-5.721,4.775-5.721c1.628,0,2.729,0.77,3.212,1.628h0.044v-6.359H243.557z
		 M241.621,33.912c0-0.242-0.022-0.572-0.088-0.814c-0.286-1.232-1.342-2.245-2.794-2.245c-2.002,0-3.19,1.76-3.19,4.115
		c0,2.156,1.056,3.938,3.146,3.938c1.298,0,2.486-0.858,2.838-2.31c0.066-0.264,0.088-0.528,0.088-0.836V33.912z"/>
	<path d="M256.405,34.815c0,3.938-2.729,5.655-5.303,5.655c-2.882,0-5.105-2.112-5.105-5.479c0-3.564,2.333-5.655,5.281-5.655
		C254.336,29.336,256.405,31.558,256.405,34.815z M247.956,34.924c0,2.333,1.342,4.093,3.234,4.093c1.848,0,3.234-1.738,3.234-4.137
		c0-1.804-0.902-4.093-3.19-4.093C248.946,30.788,247.956,32.9,247.956,34.924z"/>
	<path d="M266.437,39.831c-0.506,0.264-1.628,0.616-3.059,0.616c-3.212,0-5.303-2.179-5.303-5.435c0-3.278,2.245-5.655,5.721-5.655
		c1.144,0,2.156,0.286,2.684,0.55l-0.44,1.496c-0.462-0.264-1.188-0.506-2.244-0.506c-2.442,0-3.763,1.805-3.763,4.027
		c0,2.464,1.584,3.982,3.696,3.982c1.101,0,1.827-0.286,2.376-0.528L266.437,39.831z"/>
	<path d="M269.648,35.255c0.044,2.618,1.716,3.696,3.652,3.696c1.386,0,2.222-0.242,2.948-0.55l0.33,1.386
		c-0.682,0.308-1.848,0.66-3.542,0.66c-3.278,0-5.237-2.156-5.237-5.369c0-3.212,1.893-5.743,4.995-5.743
		c3.476,0,4.4,3.059,4.4,5.017c0,0.396-0.044,0.704-0.066,0.902H269.648z M275.325,33.868c0.022-1.232-0.506-3.146-2.685-3.146
		c-1.958,0-2.816,1.804-2.97,3.146H275.325z"/>
	<path d="M279.591,32.46c0-1.1-0.022-2.002-0.088-2.882h1.716l0.11,1.76h0.044c0.528-1.012,1.76-2.002,3.521-2.002
		c1.474,0,3.762,0.88,3.762,4.533v6.359h-1.936v-6.139c0-1.716-0.638-3.146-2.464-3.146c-1.276,0-2.267,0.902-2.597,1.98
		c-0.088,0.242-0.132,0.572-0.132,0.902v6.403h-1.936V32.46z"/>
	<path d="M294.045,26.519v3.059h2.772v1.474h-2.772v5.743c0,1.32,0.374,2.068,1.452,2.068c0.506,0,0.88-0.066,1.123-0.132
		l0.088,1.452c-0.374,0.154-0.968,0.264-1.716,0.264c-0.902,0-1.628-0.286-2.09-0.814c-0.55-0.572-0.748-1.518-0.748-2.772v-5.809
		h-1.65v-1.474h1.65v-2.552L294.045,26.519z"/>
	<path d="M299.941,35.255c0.044,2.618,1.716,3.696,3.652,3.696c1.386,0,2.222-0.242,2.948-0.55l0.33,1.386
		c-0.682,0.308-1.848,0.66-3.542,0.66c-3.278,0-5.237-2.156-5.237-5.369c0-3.212,1.893-5.743,4.995-5.743
		c3.476,0,4.4,3.059,4.4,5.017c0,0.396-0.044,0.704-0.066,0.902H299.941z M305.618,33.868c0.022-1.232-0.506-3.146-2.685-3.146
		c-1.958,0-2.816,1.804-2.97,3.146H305.618z"/>
	<path d="M309.621,38.247c0.572,0.374,1.584,0.771,2.552,0.771c1.408,0,2.068-0.704,2.068-1.584c0-0.924-0.55-1.43-1.98-1.958
		c-1.914-0.682-2.816-1.738-2.816-3.015c0-1.716,1.386-3.125,3.675-3.125c1.078,0,2.024,0.308,2.618,0.66l-0.484,1.408
		c-0.418-0.264-1.188-0.616-2.178-0.616c-1.145,0-1.782,0.66-1.782,1.452c0,0.88,0.638,1.276,2.024,1.804
		c1.849,0.704,2.794,1.628,2.794,3.213c0,1.87-1.452,3.19-3.982,3.19c-1.166,0-2.244-0.286-2.993-0.726L309.621,38.247z"/>
	<path d="M327.046,29.578l2.332,6.293c0.242,0.704,0.506,1.54,0.682,2.178h0.044c0.198-0.638,0.418-1.452,0.682-2.223l2.112-6.249
		h2.046l-2.904,7.591c-1.386,3.653-2.333,5.523-3.653,6.667c-0.946,0.836-1.892,1.167-2.376,1.254l-0.484-1.628
		c0.484-0.154,1.122-0.462,1.694-0.946c0.528-0.418,1.188-1.167,1.628-2.157c0.088-0.198,0.154-0.352,0.154-0.462
		s-0.044-0.264-0.132-0.506l-3.938-9.813H327.046z"/>
	<path d="M352.039,39.831c-0.506,0.264-1.628,0.616-3.059,0.616c-3.212,0-5.303-2.179-5.303-5.435c0-3.278,2.245-5.655,5.721-5.655
		c1.145,0,2.156,0.286,2.685,0.55l-0.44,1.496c-0.461-0.264-1.188-0.506-2.244-0.506c-2.442,0-3.762,1.805-3.762,4.027
		c0,2.464,1.584,3.982,3.696,3.982c1.102,0,1.827-0.286,2.377-0.528L352.039,39.831z"/>
	<path d="M363.809,34.815c0,3.938-2.728,5.655-5.303,5.655c-2.882,0-5.104-2.112-5.104-5.479c0-3.564,2.333-5.655,5.281-5.655
		C361.741,29.336,363.809,31.558,363.809,34.815z M355.359,34.924c0,2.333,1.343,4.093,3.235,4.093c1.848,0,3.234-1.738,3.234-4.137
		c0-1.804-0.902-4.093-3.19-4.093C356.35,30.788,355.359,32.9,355.359,34.924z"/>
	<path d="M366.25,32.46c0-1.1-0.022-2.002-0.088-2.882h1.694l0.088,1.716h0.065c0.595-1.012,1.585-1.958,3.345-1.958
		c1.452,0,2.553,0.88,3.015,2.134h0.044c0.33-0.594,0.748-1.056,1.188-1.386c0.638-0.484,1.342-0.748,2.354-0.748
		c1.408,0,3.499,0.924,3.499,4.621v6.271h-1.893v-6.029c0-2.046-0.748-3.278-2.311-3.278c-1.1,0-1.958,0.814-2.288,1.76
		c-0.088,0.264-0.154,0.616-0.154,0.968v6.579h-1.892v-6.381c0-1.694-0.748-2.926-2.223-2.926c-1.21,0-2.09,0.968-2.398,1.936
		c-0.109,0.286-0.154,0.616-0.154,0.946v6.425h-1.892V32.46z"/>
	<path d="M393.509,37.323c0,1.1,0.021,2.068,0.088,2.904h-1.716l-0.11-1.738h-0.044c-0.506,0.858-1.628,1.98-3.521,1.98
		c-1.672,0-3.675-0.924-3.675-4.665v-6.227h1.937v5.897c0,2.024,0.616,3.388,2.376,3.388c1.299,0,2.2-0.902,2.553-1.76
		c0.11-0.286,0.176-0.638,0.176-0.99v-6.535h1.937V37.323z"/>
	<path d="M396.72,32.46c0-1.1-0.022-2.002-0.088-2.882h1.716l0.11,1.76h0.044c0.528-1.012,1.76-2.002,3.521-2.002
		c1.474,0,3.763,0.88,3.763,4.533v6.359h-1.937v-6.139c0-1.716-0.638-3.146-2.465-3.146c-1.275,0-2.266,0.902-2.596,1.98
		c-0.088,0.242-0.132,0.572-0.132,0.902v6.403h-1.937V32.46z"/>
	<path d="M411.086,26.585c0.021,0.66-0.462,1.188-1.232,1.188c-0.682,0-1.166-0.528-1.166-1.188c0-0.682,0.506-1.21,1.21-1.21
		C410.624,25.375,411.086,25.903,411.086,26.585z M408.93,40.227V29.578h1.937v10.649H408.93z"/>
	<path d="M423.274,24.605v12.872c0,0.946,0.021,2.024,0.088,2.75h-1.738l-0.088-1.848h-0.044c-0.595,1.188-1.893,2.09-3.631,2.09
		c-2.574,0-4.555-2.178-4.555-5.413c-0.021-3.542,2.179-5.721,4.774-5.721c1.629,0,2.729,0.77,3.213,1.628h0.044v-6.359H423.274z
		 M421.338,33.912c0-0.242-0.021-0.572-0.088-0.814c-0.286-1.232-1.342-2.245-2.795-2.245c-2.002,0-3.19,1.76-3.19,4.115
		c0,2.156,1.057,3.938,3.146,3.938c1.299,0,2.486-0.858,2.839-2.31c0.066-0.264,0.088-0.528,0.088-0.836V33.912z"/>
	<path d="M432.382,40.227l-0.154-1.342h-0.065c-0.594,0.836-1.738,1.584-3.257,1.584c-2.156,0-3.256-1.519-3.256-3.059
		c0-2.574,2.288-3.982,6.402-3.96v-0.22c0-0.88-0.242-2.464-2.42-2.464c-0.99,0-2.024,0.308-2.772,0.792l-0.44-1.276
		c0.88-0.572,2.156-0.946,3.499-0.946c3.256,0,4.048,2.222,4.048,4.356v3.983c0,0.924,0.044,1.826,0.177,2.552H432.382z
		 M432.096,34.793c-2.112-0.044-4.511,0.33-4.511,2.398c0,1.254,0.837,1.849,1.826,1.849c1.387,0,2.267-0.88,2.575-1.782
		c0.065-0.198,0.109-0.418,0.109-0.616V34.793z"/>
	<path d="M446.286,24.605v12.872c0,0.946,0.021,2.024,0.088,2.75h-1.738l-0.088-1.848h-0.044c-0.595,1.188-1.893,2.09-3.631,2.09
		c-2.574,0-4.555-2.178-4.555-5.413c-0.021-3.542,2.179-5.721,4.774-5.721c1.629,0,2.729,0.77,3.213,1.628h0.044v-6.359H446.286z
		 M444.35,33.912c0-0.242-0.021-0.572-0.088-0.814c-0.286-1.232-1.342-2.245-2.795-2.245c-2.002,0-3.19,1.76-3.19,4.115
		c0,2.156,1.057,3.938,3.146,3.938c1.299,0,2.486-0.858,2.839-2.31c0.066-0.264,0.088-0.528,0.088-0.836V33.912z"/>
	<path d="M466.44,24.605v12.872c0,0.946,0.021,2.024,0.088,2.75h-1.738l-0.088-1.848h-0.044c-0.595,1.188-1.893,2.09-3.631,2.09
		c-2.574,0-4.555-2.178-4.555-5.413c-0.021-3.542,2.179-5.721,4.774-5.721c1.629,0,2.729,0.77,3.213,1.628h0.044v-6.359H466.44z
		 M464.504,33.912c0-0.242-0.021-0.572-0.088-0.814c-0.286-1.232-1.342-2.245-2.795-2.245c-2.002,0-3.19,1.76-3.19,4.115
		c0,2.156,1.057,3.938,3.146,3.938c1.299,0,2.486-0.858,2.839-2.31c0.066-0.264,0.088-0.528,0.088-0.836V33.912z"/>
	<path d="M470.729,35.255c0.044,2.618,1.716,3.696,3.652,3.696c1.386,0,2.223-0.242,2.948-0.55l0.33,1.386
		c-0.682,0.308-1.848,0.66-3.542,0.66c-3.279,0-5.237-2.156-5.237-5.369c0-3.212,1.893-5.743,4.995-5.743
		c3.477,0,4.4,3.059,4.4,5.017c0,0.396-0.044,0.704-0.066,0.902H470.729z M476.406,33.868c0.021-1.232-0.506-3.146-2.685-3.146
		c-1.958,0-2.816,1.804-2.971,3.146H476.406z"/>
	<path d="M480.673,24.605h1.937v15.622h-1.937V24.605z"/>
	<path d="M493.609,32.46c0-1.1-0.022-2.002-0.088-2.882h1.694l0.088,1.716h0.065c0.595-1.012,1.585-1.958,3.345-1.958
		c1.452,0,2.553,0.88,3.015,2.134h0.044c0.33-0.594,0.748-1.056,1.188-1.386c0.638-0.484,1.342-0.748,2.354-0.748
		c1.408,0,3.499,0.924,3.499,4.621v6.271h-1.893v-6.029c0-2.046-0.748-3.278-2.311-3.278c-1.1,0-1.958,0.814-2.288,1.76
		c-0.088,0.264-0.154,0.616-0.154,0.968v6.579h-1.892v-6.381c0-1.694-0.748-2.926-2.223-2.926c-1.21,0-2.09,0.968-2.398,1.936
		c-0.109,0.286-0.154,0.616-0.154,0.946v6.425h-1.892V32.46z"/>
	<path d="M520.868,37.323c0,1.1,0.021,2.068,0.088,2.904h-1.716l-0.11-1.738h-0.044c-0.506,0.858-1.628,1.98-3.521,1.98
		c-1.672,0-3.675-0.924-3.675-4.665v-6.227h1.937v5.897c0,2.024,0.616,3.388,2.376,3.388c1.299,0,2.2-0.902,2.553-1.76
		c0.11-0.286,0.176-0.638,0.176-0.99v-6.535h1.937V37.323z"/>
	<path d="M524.079,32.46c0-1.1-0.022-2.002-0.088-2.882h1.716l0.11,1.76h0.044c0.528-1.012,1.76-2.002,3.521-2.002
		c1.474,0,3.763,0.88,3.763,4.533v6.359h-1.937v-6.139c0-1.716-0.638-3.146-2.465-3.146c-1.275,0-2.266,0.902-2.596,1.98
		c-0.088,0.242-0.132,0.572-0.132,0.902v6.403h-1.937V32.46z"/>
	<path d="M538.445,26.585c0.021,0.66-0.462,1.188-1.232,1.188c-0.682,0-1.166-0.528-1.166-1.188c0-0.682,0.506-1.21,1.21-1.21
		C537.983,25.375,538.445,25.903,538.445,26.585z M536.289,40.227V29.578h1.937v10.649H536.289z"/>
	<path d="M549.027,39.831c-0.506,0.264-1.628,0.616-3.059,0.616c-3.212,0-5.303-2.179-5.303-5.435c0-3.278,2.244-5.655,5.721-5.655
		c1.145,0,2.156,0.286,2.685,0.55l-0.44,1.496c-0.462-0.264-1.188-0.506-2.244-0.506c-2.442,0-3.763,1.805-3.763,4.027
		c0,2.464,1.585,3.982,3.697,3.982c1.1,0,1.826-0.286,2.376-0.528L549.027,39.831z"/>
	<path d="M553.449,26.585c0.021,0.66-0.462,1.188-1.232,1.188c-0.682,0-1.166-0.528-1.166-1.188c0-0.682,0.506-1.21,1.21-1.21
		C552.987,25.375,553.449,25.903,553.449,26.585z M551.293,40.227V29.578h1.937v10.649H551.293z"/>
	<path d="M556.44,33.054c0-1.364-0.044-2.464-0.088-3.477h1.738l0.088,1.826h0.044c0.792-1.298,2.046-2.068,3.784-2.068
		c2.574,0,4.511,2.178,4.511,5.413c0,3.829-2.332,5.721-4.841,5.721c-1.408,0-2.641-0.616-3.278-1.672h-0.044v5.787h-1.914V33.054z
		 M558.354,35.893c0,0.286,0.044,0.55,0.088,0.792c0.353,1.342,1.519,2.266,2.904,2.266c2.047,0,3.234-1.672,3.234-4.114
		c0-2.134-1.122-3.961-3.168-3.961c-1.32,0-2.553,0.946-2.927,2.398c-0.065,0.242-0.132,0.528-0.132,0.792V35.893z"/>
	<path d="M571.114,26.585c0.021,0.66-0.462,1.188-1.232,1.188c-0.682,0-1.166-0.528-1.166-1.188c0-0.682,0.506-1.21,1.21-1.21
		C570.652,25.375,571.114,25.903,571.114,26.585z M568.958,40.227V29.578h1.937v10.649H568.958z"/>
	<path d="M583.742,34.815c0,3.938-2.728,5.655-5.303,5.655c-2.882,0-5.104-2.112-5.104-5.479c0-3.564,2.333-5.655,5.281-5.655
		C581.675,29.336,583.742,31.558,583.742,34.815z M575.293,34.924c0,2.333,1.343,4.093,3.235,4.093c1.848,0,3.234-1.738,3.234-4.137
		c0-1.804-0.902-4.093-3.19-4.093C576.283,30.788,575.293,32.9,575.293,34.924z"/>
	<path d="M603.127,24.605v12.872c0,0.946,0.021,2.024,0.088,2.75h-1.738l-0.088-1.848h-0.044c-0.595,1.188-1.893,2.09-3.631,2.09
		c-2.574,0-4.555-2.178-4.555-5.413c-0.021-3.542,2.179-5.721,4.774-5.721c1.629,0,2.729,0.77,3.213,1.628h0.044v-6.359H603.127z
		 M601.19,33.912c0-0.242-0.021-0.572-0.088-0.814c-0.286-1.232-1.342-2.245-2.794-2.245c-2.003,0-3.191,1.76-3.191,4.115
		c0,2.156,1.057,3.938,3.146,3.938c1.299,0,2.486-0.858,2.839-2.31c0.066-0.264,0.088-0.528,0.088-0.836V33.912z"/>
	<path d="M607.416,35.255c0.044,2.618,1.716,3.696,3.652,3.696c1.386,0,2.223-0.242,2.948-0.55l0.33,1.386
		c-0.682,0.308-1.848,0.66-3.542,0.66c-3.279,0-5.237-2.156-5.237-5.369c0-3.212,1.893-5.743,4.995-5.743
		c3.477,0,4.4,3.059,4.4,5.017c0,0.396-0.044,0.704-0.066,0.902H607.416z M613.093,33.868c0.021-1.232-0.506-3.146-2.685-3.146
		c-1.958,0-2.816,1.804-2.971,3.146H613.093z"/>
	<path d="M624.906,37.895c0.858,0.528,2.112,0.968,3.433,0.968c1.958,0,3.103-1.034,3.103-2.53c0-1.386-0.792-2.178-2.795-2.948
		c-2.42-0.858-3.916-2.112-3.916-4.203c0-2.311,1.914-4.027,4.797-4.027c1.518,0,2.618,0.352,3.278,0.726l-0.528,1.563
		c-0.484-0.264-1.475-0.704-2.816-0.704c-2.024,0-2.795,1.21-2.795,2.222c0,1.386,0.902,2.068,2.949,2.86
		c2.508,0.968,3.784,2.178,3.784,4.357c0,2.288-1.694,4.269-5.192,4.269c-1.431,0-2.993-0.418-3.785-0.946L624.906,37.895z"/>
	<path d="M645.719,34.815c0,3.938-2.728,5.655-5.303,5.655c-2.882,0-5.104-2.112-5.104-5.479c0-3.564,2.333-5.655,5.281-5.655
		C643.651,29.336,645.719,31.558,645.719,34.815z M637.27,34.924c0,2.333,1.343,4.093,3.235,4.093c1.848,0,3.234-1.738,3.234-4.137
		c0-1.804-0.902-4.093-3.19-4.093C638.26,30.788,637.27,32.9,637.27,34.924z"/>
	<path d="M654.057,40.227l-0.154-1.342h-0.065c-0.595,0.836-1.738,1.584-3.257,1.584c-2.156,0-3.256-1.519-3.256-3.059
		c0-2.574,2.288-3.982,6.402-3.96v-0.22c0-0.88-0.242-2.464-2.42-2.464c-0.99,0-2.024,0.308-2.772,0.792l-0.44-1.276
		c0.88-0.572,2.156-0.946,3.499-0.946c3.256,0,4.048,2.222,4.048,4.356v3.983c0,0.924,0.044,1.826,0.177,2.552H654.057z
		 M653.771,34.793c-2.112-0.044-4.511,0.33-4.511,2.398c0,1.254,0.837,1.849,1.826,1.849c1.387,0,2.267-0.88,2.575-1.782
		c0.065-0.198,0.109-0.418,0.109-0.616V34.793z"/>
	<path d="M666.354,39.831c-0.506,0.264-1.628,0.616-3.059,0.616c-3.212,0-5.303-2.179-5.303-5.435c0-3.278,2.244-5.655,5.721-5.655
		c1.145,0,2.156,0.286,2.685,0.55l-0.439,1.496c-0.463-0.264-1.188-0.506-2.245-0.506c-2.442,0-3.763,1.805-3.763,4.027
		c0,2.464,1.585,3.982,3.697,3.982c1.1,0,1.826-0.286,2.376-0.528L666.354,39.831z"/>
	<path d="M668.619,24.605h1.937v6.645h0.044c0.308-0.55,0.792-1.034,1.386-1.364c0.572-0.33,1.254-0.55,1.98-0.55
		c1.43,0,3.719,0.88,3.719,4.555v6.337h-1.937v-6.117c0-1.716-0.639-3.168-2.465-3.168c-1.254,0-2.244,0.88-2.596,1.936
		c-0.11,0.264-0.132,0.55-0.132,0.924v6.425h-1.937V24.605z"/>
	<path d="M686.726,40.227l-0.154-1.342h-0.065c-0.594,0.836-1.738,1.584-3.257,1.584c-2.156,0-3.256-1.519-3.256-3.059
		c0-2.574,2.288-3.982,6.402-3.96v-0.22c0-0.88-0.242-2.464-2.42-2.464c-0.99,0-2.024,0.308-2.772,0.792l-0.44-1.276
		c0.88-0.572,2.156-0.946,3.499-0.946c3.256,0,4.048,2.222,4.048,4.356v3.983c0,0.924,0.044,1.826,0.177,2.552H686.726z
		 M686.439,34.793c-2.112-0.044-4.511,0.33-4.511,2.398c0,1.254,0.837,1.849,1.826,1.849c1.387,0,2.267-0.88,2.575-1.782
		c0.065-0.198,0.109-0.418,0.109-0.616V34.793z"/>
	<path d="M24.17,64.647c0.572,0.374,1.584,0.771,2.552,0.771c1.408,0,2.068-0.704,2.068-1.584c0-0.924-0.55-1.43-1.98-1.958
		c-1.914-0.682-2.816-1.738-2.816-3.015c0-1.716,1.386-3.125,3.675-3.125c1.078,0,2.024,0.308,2.618,0.66l-0.484,1.408
		c-0.418-0.264-1.188-0.616-2.178-0.616c-1.145,0-1.782,0.66-1.782,1.452c0,0.88,0.638,1.276,2.024,1.804
		c1.849,0.704,2.794,1.628,2.794,3.213c0,1.87-1.452,3.19-3.982,3.19c-1.166,0-2.244-0.286-2.993-0.726L24.17,64.647z"/>
	<path d="M42.784,61.215c0,3.938-2.729,5.655-5.303,5.655c-2.882,0-5.105-2.112-5.105-5.479c0-3.564,2.333-5.655,5.281-5.655
		C40.715,55.736,42.784,57.958,42.784,61.215z M34.334,61.325c0,2.333,1.342,4.093,3.234,4.093c1.848,0,3.234-1.738,3.234-4.137
		c0-1.804-0.902-4.093-3.19-4.093C35.325,57.188,34.334,59.3,34.334,61.325z"/>
	<path d="M45.136,66.628c0.044-0.726,0.088-1.804,0.088-2.75V51.006h1.914v6.689h0.044c0.682-1.188,1.915-1.958,3.63-1.958
		c2.641,0,4.511,2.2,4.489,5.435c0,3.806-2.398,5.699-4.774,5.699c-1.541,0-2.772-0.594-3.564-2.002h-0.066l-0.088,1.76H45.136z
		 M47.139,62.359c0,0.242,0.044,0.484,0.088,0.704c0.374,1.342,1.496,2.266,2.904,2.266c2.024,0,3.235-1.65,3.235-4.092
		c0-2.134-1.1-3.961-3.168-3.961c-1.32,0-2.553,0.902-2.949,2.376c-0.044,0.22-0.11,0.484-0.11,0.792V62.359z"/>
	<path d="M57.742,59.3c0-1.254-0.022-2.332-0.088-3.322h1.694l0.066,2.09h0.088c0.484-1.43,1.65-2.333,2.948-2.333
		c0.22,0,0.374,0.022,0.55,0.066v1.826c-0.198-0.044-0.396-0.066-0.66-0.066c-1.364,0-2.333,1.034-2.597,2.486
		c-0.044,0.264-0.088,0.572-0.088,0.902v5.677h-1.914V59.3z"/>
	<path d="M65.794,61.655c0.044,2.618,1.716,3.696,3.652,3.696c1.386,0,2.222-0.242,2.948-0.55l0.33,1.386
		c-0.682,0.308-1.848,0.66-3.542,0.66c-3.278,0-5.237-2.156-5.237-5.369c0-3.212,1.893-5.743,4.995-5.743
		c3.476,0,4.4,3.059,4.4,5.017c0,0.396-0.044,0.704-0.066,0.902H65.794z M71.471,60.269c0.022-1.232-0.506-3.146-2.685-3.146
		c-1.958,0-2.816,1.804-2.97,3.146H71.471z"/>
	<path d="M81.513,51.006h1.936v15.622h-1.936V51.006z"/>
	<path d="M92.602,66.628l-0.154-1.342h-0.066c-0.594,0.836-1.738,1.584-3.257,1.584c-2.156,0-3.256-1.519-3.256-3.059
		c0-2.574,2.289-3.982,6.403-3.96v-0.22c0-0.88-0.242-2.464-2.42-2.464c-0.99,0-2.024,0.308-2.772,0.792l-0.44-1.276
		c0.88-0.572,2.156-0.946,3.499-0.946c3.257,0,4.049,2.222,4.049,4.356v3.983c0,0.924,0.044,1.826,0.176,2.552H92.602z
		 M92.315,61.193c-2.112-0.044-4.51,0.33-4.51,2.398c0,1.254,0.836,1.849,1.826,1.849c1.386,0,2.266-0.88,2.574-1.782
		c0.066-0.198,0.11-0.418,0.11-0.616V61.193z"/>
	<path d="M105.24,52.986c0.022,0.66-0.462,1.188-1.232,1.188c-0.682,0-1.166-0.528-1.166-1.188c0-0.682,0.506-1.21,1.21-1.21
		C104.777,51.776,105.24,52.303,105.24,52.986z M103.083,66.628V55.978h1.936v10.649H103.083z"/>
	<path d="M108.231,58.861c0-1.1-0.022-2.002-0.088-2.882h1.694l0.088,1.716h0.066c0.594-1.012,1.584-1.958,3.344-1.958
		c1.452,0,2.552,0.88,3.015,2.134h0.044c0.33-0.594,0.748-1.056,1.188-1.386c0.638-0.484,1.342-0.748,2.354-0.748
		c1.408,0,3.499,0.924,3.499,4.621v6.271h-1.893v-6.029c0-2.046-0.748-3.278-2.31-3.278c-1.1,0-1.958,0.814-2.289,1.76
		c-0.088,0.264-0.154,0.616-0.154,0.968v6.579h-1.892v-6.381c0-1.694-0.749-2.926-2.223-2.926c-1.21,0-2.09,0.968-2.398,1.936
		c-0.11,0.286-0.154,0.616-0.154,0.946v6.425h-1.892V58.861z"/>
	<path d="M126.58,59.455c0-1.364-0.044-2.464-0.088-3.477h1.738l0.088,1.826h0.044c0.792-1.298,2.046-2.068,3.784-2.068
		c2.575,0,4.511,2.178,4.511,5.413c0,3.829-2.332,5.721-4.841,5.721c-1.408,0-2.64-0.616-3.278-1.672h-0.044v5.787h-1.914V59.455z
		 M128.494,62.293c0,0.286,0.044,0.55,0.088,0.792c0.352,1.342,1.519,2.266,2.905,2.266c2.046,0,3.234-1.672,3.234-4.114
		c0-2.134-1.122-3.961-3.168-3.961c-1.32,0-2.553,0.946-2.927,2.398c-0.066,0.242-0.132,0.528-0.132,0.792V62.293z"/>
	<path d="M148.734,61.215c0,3.938-2.729,5.655-5.303,5.655c-2.882,0-5.105-2.112-5.105-5.479c0-3.564,2.333-5.655,5.281-5.655
		C146.666,55.736,148.734,57.958,148.734,61.215z M140.285,61.325c0,2.333,1.342,4.093,3.234,4.093c1.848,0,3.234-1.738,3.234-4.137
		c0-1.804-0.902-4.093-3.19-4.093C141.275,57.188,140.285,59.3,140.285,61.325z"/>
	<path d="M151.175,59.3c0-1.254-0.022-2.332-0.088-3.322h1.694l0.066,2.09h0.088c0.484-1.43,1.65-2.333,2.948-2.333
		c0.22,0,0.374,0.022,0.55,0.066v1.826c-0.198-0.044-0.396-0.066-0.66-0.066c-1.364,0-2.333,1.034-2.597,2.486
		c-0.044,0.264-0.088,0.572-0.088,0.902v5.677h-1.914V59.3z"/>
	<path d="M161.229,52.92v3.059h2.772v1.474h-2.772v5.743c0,1.32,0.374,2.068,1.452,2.068c0.506,0,0.88-0.066,1.122-0.132
		l0.088,1.452c-0.374,0.154-0.968,0.264-1.716,0.264c-0.902,0-1.628-0.286-2.09-0.814c-0.55-0.572-0.748-1.518-0.748-2.772v-5.809
		h-1.65v-1.474h1.65v-2.552L161.229,52.92z"/>
	<path d="M172.075,66.628l-0.154-1.342h-0.066c-0.594,0.836-1.738,1.584-3.257,1.584c-2.156,0-3.256-1.519-3.256-3.059
		c0-2.574,2.289-3.982,6.403-3.96v-0.22c0-0.88-0.242-2.464-2.42-2.464c-0.99,0-2.024,0.308-2.772,0.792l-0.44-1.276
		c0.88-0.572,2.157-0.946,3.499-0.946c3.257,0,4.049,2.222,4.049,4.356v3.983c0,0.924,0.044,1.826,0.176,2.552H172.075z
		 M171.789,61.193c-2.112-0.044-4.511,0.33-4.511,2.398c0,1.254,0.836,1.849,1.826,1.849c1.386,0,2.266-0.88,2.574-1.782
		c0.066-0.198,0.11-0.418,0.11-0.616V61.193z"/>
	<path d="M176.782,58.861c0-1.1-0.022-2.002-0.088-2.882h1.716l0.11,1.76h0.044c0.528-1.012,1.76-2.002,3.521-2.002
		c1.474,0,3.762,0.88,3.762,4.533v6.359h-1.936v-6.139c0-1.716-0.638-3.146-2.464-3.146c-1.276,0-2.267,0.902-2.597,1.98
		c-0.088,0.242-0.132,0.572-0.132,0.902v6.403h-1.936V58.861z"/>
	<path d="M196.583,66.232c-0.506,0.264-1.628,0.616-3.059,0.616c-3.212,0-5.303-2.179-5.303-5.435c0-3.278,2.245-5.655,5.721-5.655
		c1.144,0,2.156,0.286,2.684,0.55l-0.44,1.496c-0.462-0.264-1.188-0.506-2.244-0.506c-2.442,0-3.763,1.805-3.763,4.027
		c0,2.464,1.584,3.982,3.696,3.982c1.101,0,1.827-0.286,2.376-0.528L196.583,66.232z"/>
	<path d="M201.004,52.986c0.022,0.66-0.462,1.188-1.232,1.188c-0.682,0-1.166-0.528-1.166-1.188c0-0.682,0.506-1.21,1.21-1.21
		C200.542,51.776,201.004,52.303,201.004,52.986z M198.848,66.628V55.978h1.936v10.649H198.848z"/>
	<path d="M209.893,66.628l-0.154-1.342h-0.066c-0.594,0.836-1.738,1.584-3.257,1.584c-2.156,0-3.256-1.519-3.256-3.059
		c0-2.574,2.289-3.982,6.403-3.96v-0.22c0-0.88-0.242-2.464-2.42-2.464c-0.99,0-2.024,0.308-2.772,0.792l-0.44-1.276
		c0.88-0.572,2.156-0.946,3.499-0.946c3.257,0,4.049,2.222,4.049,4.356v3.983c0,0.924,0.044,1.826,0.176,2.552H209.893z
		 M209.606,61.193c-2.112-0.044-4.51,0.33-4.51,2.398c0,1.254,0.836,1.849,1.826,1.849c1.386,0,2.266-0.88,2.574-1.782
		c0.066-0.198,0.11-0.418,0.11-0.616V61.193z"/>
	<path d="M229.572,51.006v12.872c0,0.946,0.022,2.024,0.088,2.75h-1.738l-0.088-1.848h-0.044c-0.594,1.188-1.893,2.09-3.631,2.09
		c-2.574,0-4.555-2.178-4.555-5.413c-0.022-3.542,2.179-5.721,4.775-5.721c1.628,0,2.729,0.77,3.212,1.628h0.044v-6.359H229.572z
		 M227.636,60.313c0-0.242-0.022-0.572-0.088-0.814c-0.286-1.232-1.342-2.245-2.794-2.245c-2.002,0-3.19,1.76-3.19,4.115
		c0,2.156,1.056,3.938,3.146,3.938c1.298,0,2.486-0.858,2.838-2.31c0.066-0.264,0.088-0.528,0.088-0.836V60.313z"/>
	<path d="M233.861,61.655c0.044,2.618,1.716,3.696,3.652,3.696c1.386,0,2.222-0.242,2.948-0.55l0.33,1.386
		c-0.682,0.308-1.848,0.66-3.542,0.66c-3.278,0-5.237-2.156-5.237-5.369c0-3.212,1.893-5.743,4.995-5.743
		c3.476,0,4.4,3.059,4.4,5.017c0,0.396-0.044,0.704-0.066,0.902H233.861z M239.538,60.269c0.022-1.232-0.506-3.146-2.685-3.146
		c-1.958,0-2.816,1.804-2.97,3.146H239.538z"/>
	<path d="M243.805,51.006h1.936v15.622h-1.936V51.006z"/>
	<path d="M254.771,58.861c0-1.1-0.022-2.002-0.088-2.882h1.694l0.088,1.716h0.066c0.594-1.012,1.584-1.958,3.344-1.958
		c1.452,0,2.552,0.88,3.015,2.134h0.044c0.33-0.594,0.748-1.056,1.188-1.386c0.638-0.484,1.342-0.748,2.354-0.748
		c1.408,0,3.499,0.924,3.499,4.621v6.271h-1.893v-6.029c0-2.046-0.748-3.278-2.31-3.278c-1.1,0-1.958,0.814-2.289,1.76
		c-0.088,0.264-0.154,0.616-0.154,0.968v6.579h-1.892v-6.381c0-1.694-0.749-2.926-2.223-2.926c-1.21,0-2.09,0.968-2.398,1.936
		c-0.11,0.286-0.154,0.616-0.154,0.946v6.425h-1.892V58.861z"/>
	<path d="M279.016,66.628l-0.154-1.342h-0.066c-0.594,0.836-1.738,1.584-3.257,1.584c-2.156,0-3.256-1.519-3.256-3.059
		c0-2.574,2.289-3.982,6.403-3.96v-0.22c0-0.88-0.242-2.464-2.42-2.464c-0.99,0-2.024,0.308-2.772,0.792l-0.44-1.276
		c0.88-0.572,2.157-0.946,3.499-0.946c3.257,0,4.049,2.222,4.049,4.356v3.983c0,0.924,0.044,1.826,0.176,2.552H279.016z
		 M278.73,61.193c-2.112-0.044-4.511,0.33-4.511,2.398c0,1.254,0.836,1.849,1.826,1.849c1.386,0,2.266-0.88,2.574-1.782
		c0.066-0.198,0.11-0.418,0.11-0.616V61.193z"/>
	<path d="M283.724,58.861c0-1.1-0.022-2.002-0.088-2.882h1.716l0.11,1.76h0.044c0.528-1.012,1.76-2.002,3.521-2.002
		c1.474,0,3.762,0.88,3.762,4.533v6.359h-1.936v-6.139c0-1.716-0.638-3.146-2.464-3.146c-1.276,0-2.267,0.902-2.597,1.98
		c-0.088,0.242-0.132,0.572-0.132,0.902v6.403h-1.936V58.861z"/>
	<path d="M297.012,61.655c0.044,2.618,1.716,3.696,3.652,3.696c1.386,0,2.222-0.242,2.948-0.55l0.33,1.386
		c-0.682,0.308-1.848,0.66-3.542,0.66c-3.278,0-5.237-2.156-5.237-5.369c0-3.212,1.893-5.743,4.995-5.743
		c3.476,0,4.4,3.059,4.4,5.017c0,0.396-0.044,0.704-0.066,0.902H297.012z M302.688,60.269c0.022-1.232-0.506-3.146-2.685-3.146
		c-1.958,0-2.816,1.804-2.97,3.146H302.688z"/>
	<path d="M304.359,69.708c0.88-0.066,1.65-0.308,2.112-0.814c0.528-0.616,0.726-1.452,0.726-4.004v-8.911h1.937v9.659
		c0,2.068-0.33,3.411-1.276,4.379c-0.858,0.858-2.266,1.21-3.3,1.21L304.359,69.708z M309.354,52.986
		c0.022,0.638-0.44,1.188-1.21,1.188c-0.726,0-1.188-0.55-1.188-1.188c0-0.682,0.506-1.21,1.232-1.21
		C308.892,51.776,309.354,52.303,309.354,52.986z"/>
	<path d="M321.938,61.215c0,3.938-2.729,5.655-5.303,5.655c-2.882,0-5.105-2.112-5.105-5.479c0-3.564,2.333-5.655,5.281-5.655
		C319.87,55.736,321.938,57.958,321.938,61.215z M313.489,61.325c0,2.333,1.342,4.093,3.234,4.093c1.848,0,3.234-1.738,3.234-4.137
		c0-1.804-0.902-4.093-3.19-4.093C314.479,57.188,313.489,59.3,313.489,61.325z"/>
	<path d="M330.858,55.978l2.332,6.293c0.242,0.704,0.506,1.54,0.682,2.178h0.044c0.198-0.638,0.418-1.452,0.682-2.223l2.112-6.249
		h2.046l-2.904,7.591c-1.386,3.653-2.333,5.523-3.653,6.667c-0.946,0.836-1.892,1.167-2.376,1.254l-0.484-1.628
		c0.484-0.154,1.122-0.462,1.694-0.946c0.528-0.418,1.188-1.167,1.628-2.157c0.088-0.198,0.154-0.352,0.154-0.462
		s-0.044-0.264-0.132-0.506l-3.938-9.813H330.858z"/>
	<path d="M353.882,66.232c-0.507,0.264-1.629,0.616-3.06,0.616c-3.212,0-5.302-2.179-5.302-5.435c0-3.278,2.245-5.655,5.721-5.655
		c1.144,0,2.156,0.286,2.685,0.55l-0.44,1.496c-0.462-0.264-1.188-0.506-2.244-0.506c-2.442,0-3.763,1.805-3.763,4.027
		c0,2.464,1.584,3.982,3.696,3.982c1.101,0,1.826-0.286,2.377-0.528L353.882,66.232z"/>
	<path d="M365.058,63.723c0,1.1,0.021,2.068,0.088,2.904h-1.716l-0.11-1.738h-0.044c-0.506,0.858-1.628,1.98-3.521,1.98
		c-1.672,0-3.675-0.924-3.675-4.665v-6.227h1.937v5.897c0,2.024,0.616,3.388,2.376,3.388c1.299,0,2.2-0.902,2.553-1.76
		c0.11-0.286,0.176-0.638,0.176-0.99v-6.535h1.937V63.723z"/>
	<path d="M370.425,52.986c0.021,0.66-0.462,1.188-1.232,1.188c-0.682,0-1.166-0.528-1.166-1.188c0-0.682,0.506-1.21,1.21-1.21
		C369.963,51.776,370.425,52.303,370.425,52.986z M368.269,66.628V55.978h1.937v10.649H368.269z"/>
	<path d="M382.613,51.006v12.872c0,0.946,0.021,2.024,0.088,2.75h-1.738l-0.088-1.848h-0.044c-0.595,1.188-1.893,2.09-3.631,2.09
		c-2.574,0-4.555-2.178-4.555-5.413c-0.021-3.542,2.179-5.721,4.774-5.721c1.629,0,2.729,0.77,3.213,1.628h0.044v-6.359H382.613z
		 M380.677,60.313c0-0.242-0.021-0.572-0.088-0.814c-0.286-1.232-1.342-2.245-2.794-2.245c-2.003,0-3.191,1.76-3.191,4.115
		c0,2.156,1.057,3.938,3.146,3.938c1.299,0,2.486-0.858,2.839-2.31c0.066-0.264,0.088-0.528,0.088-0.836V60.313z"/>
	<path d="M391.721,66.628l-0.154-1.342h-0.065c-0.595,0.836-1.738,1.584-3.257,1.584c-2.156,0-3.256-1.519-3.256-3.059
		c0-2.574,2.288-3.982,6.402-3.96v-0.22c0-0.88-0.242-2.464-2.42-2.464c-0.99,0-2.024,0.308-2.772,0.792l-0.44-1.276
		c0.88-0.572,2.156-0.946,3.499-0.946c3.256,0,4.048,2.222,4.048,4.356v3.983c0,0.924,0.044,1.826,0.177,2.552H391.721z
		 M391.435,61.193c-2.112-0.044-4.511,0.33-4.511,2.398c0,1.254,0.837,1.849,1.826,1.849c1.387,0,2.267-0.88,2.575-1.782
		c0.065-0.198,0.109-0.418,0.109-0.616V61.193z"/>
	<path d="M405.625,51.006v12.872c0,0.946,0.021,2.024,0.088,2.75h-1.738l-0.088-1.848h-0.044c-0.595,1.188-1.893,2.09-3.631,2.09
		c-2.574,0-4.555-2.178-4.555-5.413c-0.021-3.542,2.179-5.721,4.774-5.721c1.629,0,2.729,0.77,3.213,1.628h0.044v-6.359H405.625z
		 M403.688,60.313c0-0.242-0.021-0.572-0.088-0.814c-0.286-1.232-1.342-2.245-2.794-2.245c-2.003,0-3.191,1.76-3.191,4.115
		c0,2.156,1.057,3.938,3.146,3.938c1.299,0,2.486-0.858,2.839-2.31c0.066-0.264,0.088-0.528,0.088-0.836V60.313z"/>
	<path d="M418.473,61.215c0,3.938-2.728,5.655-5.303,5.655c-2.882,0-5.104-2.112-5.104-5.479c0-3.564,2.333-5.655,5.281-5.655
		C416.405,55.736,418.473,57.958,418.473,61.215z M410.023,61.325c0,2.333,1.343,4.093,3.235,4.093c1.848,0,3.234-1.738,3.234-4.137
		c0-1.804-0.902-4.093-3.19-4.093C411.014,57.188,410.023,59.3,410.023,61.325z"/>
	<path d="M435.887,51.006v12.872c0,0.946,0.021,2.024,0.088,2.75h-1.738l-0.088-1.848h-0.044c-0.595,1.188-1.893,2.09-3.631,2.09
		c-2.574,0-4.555-2.178-4.555-5.413c-0.021-3.542,2.179-5.721,4.774-5.721c1.629,0,2.729,0.77,3.213,1.628h0.044v-6.359H435.887z
		 M433.95,60.313c0-0.242-0.021-0.572-0.088-0.814c-0.286-1.232-1.342-2.245-2.794-2.245c-2.003,0-3.191,1.76-3.191,4.115
		c0,2.156,1.057,3.938,3.146,3.938c1.299,0,2.486-0.858,2.839-2.31c0.066-0.264,0.088-0.528,0.088-0.836V60.313z"/>
	<path d="M440.176,61.655c0.044,2.618,1.716,3.696,3.652,3.696c1.386,0,2.223-0.242,2.948-0.55l0.33,1.386
		c-0.682,0.308-1.848,0.66-3.542,0.66c-3.279,0-5.237-2.156-5.237-5.369c0-3.212,1.893-5.743,4.995-5.743
		c3.477,0,4.4,3.059,4.4,5.017c0,0.396-0.044,0.704-0.066,0.902H440.176z M445.853,60.269c0.021-1.232-0.506-3.146-2.685-3.146
		c-1.958,0-2.816,1.804-2.971,3.146H445.853z"/>
	<path d="M455.895,51.006h1.937v15.622h-1.937V51.006z"/>
	<path d="M466.982,66.628l-0.154-1.342h-0.065c-0.595,0.836-1.738,1.584-3.257,1.584c-2.156,0-3.256-1.519-3.256-3.059
		c0-2.574,2.288-3.982,6.402-3.96v-0.22c0-0.88-0.242-2.464-2.42-2.464c-0.99,0-2.024,0.308-2.772,0.792l-0.44-1.276
		c0.88-0.572,2.156-0.946,3.499-0.946c3.256,0,4.048,2.222,4.048,4.356v3.983c0,0.924,0.044,1.826,0.177,2.552H466.982z
		 M466.696,61.193c-2.112-0.044-4.511,0.33-4.511,2.398c0,1.254,0.837,1.849,1.826,1.849c1.387,0,2.267-0.88,2.575-1.782
		c0.065-0.198,0.109-0.418,0.109-0.616V61.193z"/>
	<path d="M471.425,64.647c0.572,0.374,1.585,0.771,2.553,0.771c1.408,0,2.068-0.704,2.068-1.584c0-0.924-0.55-1.43-1.98-1.958
		c-1.914-0.682-2.816-1.738-2.816-3.015c0-1.716,1.387-3.125,3.675-3.125c1.078,0,2.024,0.308,2.618,0.66l-0.484,1.408
		c-0.418-0.264-1.188-0.616-2.178-0.616c-1.145,0-1.782,0.66-1.782,1.452c0,0.88,0.638,1.276,2.024,1.804
		c1.848,0.704,2.794,1.628,2.794,3.213c0,1.87-1.452,3.19-3.982,3.19c-1.166,0-2.244-0.286-2.992-0.726L471.425,64.647z"/>
	<path d="M487.255,61.655c0.044,2.618,1.716,3.696,3.652,3.696c1.386,0,2.223-0.242,2.948-0.55l0.33,1.386
		c-0.682,0.308-1.848,0.66-3.542,0.66c-3.279,0-5.237-2.156-5.237-5.369c0-3.212,1.893-5.743,4.995-5.743
		c3.477,0,4.4,3.059,4.4,5.017c0,0.396-0.044,0.704-0.066,0.902H487.255z M492.932,60.269c0.021-1.232-0.506-3.146-2.685-3.146
		c-1.958,0-2.816,1.804-2.971,3.146H492.932z"/>
	<path d="M497.198,58.861c0-1.1-0.022-2.002-0.088-2.882h1.716l0.11,1.76h0.044c0.528-1.012,1.76-2.002,3.521-2.002
		c1.474,0,3.763,0.88,3.763,4.533v6.359h-1.937v-6.139c0-1.716-0.638-3.146-2.465-3.146c-1.275,0-2.266,0.902-2.596,1.98
		c-0.088,0.242-0.132,0.572-0.132,0.902v6.403h-1.937V58.861z"/>
	<path d="M509.606,66.628v-9.175h-1.497v-1.474h1.497v-0.506c0-1.496,0.33-2.86,1.231-3.718c0.727-0.704,1.694-0.99,2.597-0.99
		c0.682,0,1.276,0.154,1.65,0.308l-0.265,1.496c-0.285-0.132-0.682-0.242-1.231-0.242c-1.65,0-2.068,1.452-2.068,3.081v0.572h2.574
		v1.474h-2.574v9.175H509.606z"/>
	<path d="M516.625,61.655c0.044,2.618,1.716,3.696,3.652,3.696c1.386,0,2.223-0.242,2.948-0.55l0.33,1.386
		c-0.682,0.308-1.848,0.66-3.542,0.66c-3.279,0-5.237-2.156-5.237-5.369c0-3.212,1.893-5.743,4.995-5.743
		c3.477,0,4.4,3.059,4.4,5.017c0,0.396-0.044,0.704-0.066,0.902H516.625z M522.302,60.269c0.021-1.232-0.506-3.146-2.685-3.146
		c-1.958,0-2.816,1.804-2.971,3.146H522.302z"/>
	<path d="M526.568,59.3c0-1.254-0.022-2.332-0.088-3.322h1.694l0.065,2.09h0.088c0.484-1.43,1.65-2.333,2.948-2.333
		c0.221,0,0.374,0.022,0.551,0.066v1.826c-0.198-0.044-0.396-0.066-0.66-0.066c-1.364,0-2.333,1.034-2.597,2.486
		c-0.044,0.264-0.088,0.572-0.088,0.902v5.677h-1.914V59.3z"/>
	<path d="M533.851,58.861c0-1.1-0.022-2.002-0.088-2.882h1.694l0.088,1.716h0.065c0.595-1.012,1.585-1.958,3.345-1.958
		c1.452,0,2.553,0.88,3.015,2.134h0.044c0.33-0.594,0.748-1.056,1.188-1.386c0.638-0.484,1.342-0.748,2.354-0.748
		c1.408,0,3.499,0.924,3.499,4.621v6.271h-1.893v-6.029c0-2.046-0.748-3.278-2.311-3.278c-1.1,0-1.958,0.814-2.288,1.76
		c-0.088,0.264-0.154,0.616-0.154,0.968v6.579h-1.892v-6.381c0-1.694-0.748-2.926-2.223-2.926c-1.21,0-2.09,0.968-2.398,1.936
		c-0.109,0.286-0.154,0.616-0.154,0.946v6.425h-1.892V58.861z"/>
	<path d="M553.276,61.655c0.044,2.618,1.716,3.696,3.652,3.696c1.386,0,2.223-0.242,2.948-0.55l0.33,1.386
		c-0.682,0.308-1.848,0.66-3.542,0.66c-3.279,0-5.237-2.156-5.237-5.369c0-3.212,1.893-5.743,4.995-5.743
		c3.477,0,4.4,3.059,4.4,5.017c0,0.396-0.044,0.704-0.066,0.902H553.276z M558.953,60.269c0.021-1.232-0.506-3.146-2.685-3.146
		c-1.958,0-2.816,1.804-2.971,3.146H558.953z"/>
	<path d="M572.417,51.006v12.872c0,0.946,0.021,2.024,0.088,2.75h-1.738l-0.088-1.848h-0.044c-0.595,1.188-1.893,2.09-3.631,2.09
		c-2.574,0-4.555-2.178-4.555-5.413c-0.021-3.542,2.179-5.721,4.774-5.721c1.629,0,2.729,0.77,3.213,1.628h0.044v-6.359H572.417z
		 M570.48,60.313c0-0.242-0.021-0.572-0.088-0.814c-0.286-1.232-1.342-2.245-2.795-2.245c-2.002,0-3.19,1.76-3.19,4.115
		c0,2.156,1.057,3.938,3.146,3.938c1.299,0,2.486-0.858,2.839-2.31c0.066-0.264,0.088-0.528,0.088-0.836V60.313z"/>
	<path d="M581.524,66.628l-0.154-1.342h-0.065c-0.594,0.836-1.738,1.584-3.257,1.584c-2.156,0-3.256-1.519-3.256-3.059
		c0-2.574,2.288-3.982,6.402-3.96v-0.22c0-0.88-0.242-2.464-2.42-2.464c-0.99,0-2.024,0.308-2.772,0.792l-0.44-1.276
		c0.88-0.572,2.156-0.946,3.499-0.946c3.256,0,4.048,2.222,4.048,4.356v3.983c0,0.924,0.044,1.826,0.177,2.552H581.524z
		 M581.238,61.193c-2.112-0.044-4.511,0.33-4.511,2.398c0,1.254,0.837,1.849,1.826,1.849c1.387,0,2.267-0.88,2.575-1.782
		c0.065-0.198,0.109-0.418,0.109-0.616V61.193z"/>
	<path d="M595.429,51.006v12.872c0,0.946,0.021,2.024,0.088,2.75h-1.738l-0.088-1.848h-0.044c-0.595,1.188-1.893,2.09-3.631,2.09
		c-2.574,0-4.555-2.178-4.555-5.413c-0.021-3.542,2.179-5.721,4.774-5.721c1.629,0,2.729,0.77,3.213,1.628h0.044v-6.359H595.429z
		 M593.492,60.313c0-0.242-0.021-0.572-0.088-0.814c-0.286-1.232-1.342-2.245-2.795-2.245c-2.002,0-3.19,1.76-3.19,4.115
		c0,2.156,1.057,3.938,3.146,3.938c1.299,0,2.486-0.858,2.839-2.31c0.066-0.264,0.088-0.528,0.088-0.836V60.313z"/>
	<path d="M599.718,61.655c0.044,2.618,1.716,3.696,3.652,3.696c1.386,0,2.223-0.242,2.948-0.55l0.33,1.386
		c-0.682,0.308-1.848,0.66-3.542,0.66c-3.279,0-5.237-2.156-5.237-5.369c0-3.212,1.893-5.743,4.995-5.743
		c3.477,0,4.4,3.059,4.4,5.017c0,0.396-0.044,0.704-0.066,0.902H599.718z M605.395,60.269c0.021-1.232-0.506-3.146-2.685-3.146
		c-1.958,0-2.816,1.804-2.971,3.146H605.395z"/>
	<path d="M609.396,64.647c0.572,0.374,1.585,0.771,2.553,0.771c1.408,0,2.068-0.704,2.068-1.584c0-0.924-0.55-1.43-1.98-1.958
		c-1.914-0.682-2.816-1.738-2.816-3.015c0-1.716,1.387-3.125,3.675-3.125c1.078,0,2.024,0.308,2.618,0.66l-0.484,1.408
		c-0.418-0.264-1.188-0.616-2.178-0.616c-1.145,0-1.782,0.66-1.782,1.452c0,0.88,0.638,1.276,2.024,1.804
		c1.848,0.704,2.794,1.628,2.794,3.213c0,1.87-1.452,3.19-3.982,3.19c-1.166,0-2.244-0.286-2.992-0.726L609.396,64.647z"/>
	<path d="M631.409,64.977h-0.044c-0.572,1.056-1.76,1.893-3.477,1.893c-2.486,0-4.511-2.156-4.511-5.391
		c0-3.982,2.574-5.743,4.819-5.743c1.649,0,2.75,0.814,3.278,1.848h0.044l0.065-1.606h1.826c-0.044,0.902-0.065,1.826-0.065,2.926
		v12.08h-1.937V64.977z M631.409,60.291c0-0.264-0.021-0.572-0.088-0.814c-0.286-1.188-1.32-2.201-2.772-2.201
		c-2.002,0-3.213,1.694-3.213,4.093c0,2.112,1.013,3.96,3.146,3.96c1.255,0,2.333-0.77,2.772-2.112
		c0.089-0.264,0.154-0.638,0.154-0.924V60.291z"/>
	<path d="M645.445,63.723c0,1.1,0.021,2.068,0.088,2.904h-1.716l-0.11-1.738h-0.044c-0.506,0.858-1.628,1.98-3.521,1.98
		c-1.672,0-3.675-0.924-3.675-4.665v-6.227h1.937v5.897c0,2.024,0.616,3.388,2.376,3.388c1.299,0,2.2-0.902,2.553-1.76
		c0.11-0.286,0.176-0.638,0.176-0.99v-6.535h1.937V63.723z"/>
	<path d="M649.734,61.655c0.044,2.618,1.716,3.696,3.652,3.696c1.386,0,2.223-0.242,2.948-0.55l0.33,1.386
		c-0.682,0.308-1.848,0.66-3.542,0.66c-3.279,0-5.237-2.156-5.237-5.369c0-3.212,1.893-5.743,4.995-5.743
		c3.477,0,4.4,3.059,4.4,5.017c0,0.396-0.044,0.704-0.066,0.902H649.734z M655.411,60.269c0.021-1.232-0.506-3.146-2.685-3.146
		c-1.958,0-2.816,1.804-2.971,3.146H655.411z"/>
	<path d="M665.453,51.006h1.937v15.622h-1.937V51.006z"/>
	<path d="M680.281,61.215c0,3.938-2.728,5.655-5.303,5.655c-2.882,0-5.104-2.112-5.104-5.479c0-3.564,2.333-5.655,5.281-5.655
		C678.214,55.736,680.281,57.958,680.281,61.215z M671.832,61.325c0,2.333,1.343,4.093,3.235,4.093c1.848,0,3.234-1.738,3.234-4.137
		c0-1.804-0.902-4.093-3.19-4.093C672.822,57.188,671.832,59.3,671.832,61.325z"/>
	<path d="M682.458,64.647c0.572,0.374,1.585,0.771,2.553,0.771c1.408,0,2.068-0.704,2.068-1.584c0-0.924-0.55-1.43-1.98-1.958
		c-1.914-0.682-2.816-1.738-2.816-3.015c0-1.716,1.387-3.125,3.675-3.125c1.078,0,2.024,0.308,2.618,0.66l-0.484,1.408
		c-0.418-0.264-1.188-0.616-2.178-0.616c-1.145,0-1.782,0.66-1.782,1.452c0,0.88,0.638,1.276,2.024,1.804
		c1.848,0.704,2.794,1.628,2.794,3.213c0,1.87-1.452,3.19-3.982,3.19c-1.166,0-2.244-0.286-2.992-0.726L682.458,64.647z"/>
	<path d="M24.435,85.26c0-1.1-0.022-2.002-0.088-2.882h1.716l0.11,1.76h0.044c0.528-1.012,1.76-2.002,3.521-2.002
		c1.474,0,3.762,0.88,3.762,4.533v6.359h-1.936v-6.139c0-1.716-0.638-3.146-2.464-3.146c-1.276,0-2.267,0.902-2.597,1.98
		c-0.088,0.242-0.132,0.572-0.132,0.902v6.403h-1.936V85.26z"/>
	<path d="M38.801,79.385c0.022,0.66-0.462,1.188-1.232,1.188c-0.682,0-1.166-0.528-1.166-1.188c0-0.682,0.506-1.21,1.21-1.21
		C38.338,78.175,38.801,78.703,38.801,79.385z M36.645,93.028V82.378h1.936v10.649H36.645z"/>
	<path d="M41.792,85.26c0-1.1-0.022-2.002-0.088-2.882h1.716l0.11,1.76h0.044c0.528-1.012,1.76-2.002,3.521-2.002
		c1.474,0,3.762,0.88,3.762,4.533v6.359h-1.936v-6.139c0-1.716-0.638-3.146-2.464-3.146c-1.276,0-2.267,0.902-2.597,1.98
		c-0.088,0.242-0.132,0.572-0.132,0.902v6.403h-1.936V85.26z M43.597,80.552c-0.044-1.431,0.55-2.289,1.496-2.289
		c0.484,0,0.858,0.198,1.364,0.484c0.352,0.198,0.66,0.374,0.924,0.374c0.352,0,0.572-0.198,0.616-0.946h1.034
		c0.022,1.474-0.484,2.222-1.518,2.222c-0.462,0-0.88-0.198-1.342-0.44c-0.44-0.264-0.682-0.396-0.946-0.396
		c-0.352,0-0.528,0.374-0.572,0.99H43.597z"/>
	<path d="M63.64,87.615c0,3.938-2.729,5.655-5.303,5.655c-2.882,0-5.105-2.112-5.105-5.479c0-3.564,2.333-5.655,5.281-5.655
		C61.571,82.136,63.64,84.358,63.64,87.615z M55.19,87.725c0,2.333,1.342,4.093,3.234,4.093c1.848,0,3.234-1.738,3.234-4.137
		c0-1.804-0.902-4.093-3.19-4.093C56.181,83.588,55.19,85.7,55.19,87.725z"/>
	<path d="M65.816,91.047c0.572,0.374,1.584,0.771,2.552,0.771c1.408,0,2.068-0.704,2.068-1.584c0-0.924-0.55-1.43-1.98-1.958
		c-1.914-0.682-2.816-1.738-2.816-3.014c0-1.716,1.386-3.125,3.675-3.125c1.078,0,2.024,0.308,2.618,0.66l-0.484,1.408
		c-0.418-0.264-1.188-0.616-2.178-0.616c-1.145,0-1.782,0.66-1.782,1.452c0,0.88,0.638,1.276,2.024,1.804
		c1.849,0.704,2.794,1.628,2.794,3.213c0,1.87-1.452,3.19-3.982,3.19c-1.166,0-2.244-0.286-2.993-0.726L65.816,91.047z"/>
	<path d="M80.423,85.855c0-1.364-0.044-2.464-0.088-3.477h1.738l0.088,1.826h0.044c0.792-1.298,2.046-2.068,3.784-2.068
		c2.575,0,4.511,2.178,4.511,5.413c0,3.829-2.332,5.721-4.841,5.721c-1.408,0-2.64-0.616-3.278-1.672h-0.044v5.787h-1.914V85.855z
		 M82.337,88.693c0,0.286,0.044,0.55,0.088,0.792c0.352,1.342,1.519,2.266,2.905,2.266c2.046,0,3.234-1.672,3.234-4.114
		c0-2.134-1.122-3.961-3.168-3.961c-1.32,0-2.553,0.946-2.927,2.398c-0.066,0.242-0.132,0.528-0.132,0.792V88.693z"/>
	<path d="M101.852,90.123c0,1.1,0.022,2.068,0.088,2.904h-1.716l-0.11-1.738h-0.044c-0.506,0.858-1.628,1.98-3.521,1.98
		c-1.672,0-3.675-0.924-3.675-4.665v-6.227h1.937v5.896c0,2.024,0.616,3.389,2.376,3.389c1.298,0,2.2-0.902,2.552-1.76
		c0.11-0.286,0.176-0.638,0.176-0.99v-6.535h1.937V90.123z"/>
	<path d="M106.141,88.055c0.044,2.618,1.716,3.696,3.652,3.696c1.386,0,2.222-0.242,2.948-0.55l0.33,1.386
		c-0.682,0.308-1.848,0.66-3.542,0.66c-3.278,0-5.237-2.157-5.237-5.369s1.893-5.743,4.995-5.743c3.476,0,4.4,3.059,4.4,5.017
		c0,0.396-0.044,0.704-0.066,0.902H106.141z M111.818,86.669c0.022-1.232-0.506-3.146-2.685-3.146c-1.958,0-2.816,1.804-2.97,3.146
		H111.818z"/>
	<path d="M125.282,77.405v12.872c0,0.946,0.022,2.024,0.088,2.75h-1.738l-0.088-1.848H123.5c-0.594,1.188-1.893,2.09-3.631,2.09
		c-2.574,0-4.555-2.179-4.555-5.413c-0.022-3.542,2.179-5.721,4.775-5.721c1.628,0,2.729,0.77,3.212,1.628h0.044v-6.359H125.282z
		 M123.346,86.713c0-0.242-0.022-0.572-0.088-0.814c-0.286-1.232-1.342-2.245-2.794-2.245c-2.002,0-3.19,1.76-3.19,4.115
		c0,2.156,1.056,3.938,3.146,3.938c1.298,0,2.486-0.858,2.838-2.31c0.066-0.264,0.088-0.528,0.088-0.836V86.713z"/>
	<path d="M129.571,88.055c0.044,2.618,1.716,3.696,3.652,3.696c1.386,0,2.222-0.242,2.948-0.55l0.33,1.386
		c-0.682,0.308-1.848,0.66-3.542,0.66c-3.278,0-5.237-2.157-5.237-5.369s1.893-5.743,4.995-5.743c3.476,0,4.4,3.059,4.4,5.017
		c0,0.396-0.044,0.704-0.066,0.902H129.571z M135.248,86.669c0.022-1.232-0.506-3.146-2.685-3.146c-1.958,0-2.816,1.804-2.97,3.146
		H135.248z"/>
	<path d="M139.515,85.26c0-1.1-0.022-2.002-0.088-2.882h1.716l0.11,1.76h0.044c0.528-1.012,1.76-2.002,3.521-2.002
		c1.474,0,3.762,0.88,3.762,4.533v6.359h-1.936v-6.139c0-1.716-0.638-3.146-2.464-3.146c-1.276,0-2.267,0.902-2.597,1.98
		c-0.088,0.242-0.132,0.572-0.132,0.902v6.403h-1.936V85.26z"/>
	<path d="M163.252,93.028l-0.154-1.342h-0.066c-0.594,0.836-1.738,1.584-3.257,1.584c-2.156,0-3.256-1.519-3.256-3.059
		c0-2.574,2.289-3.982,6.403-3.96v-0.22c0-0.88-0.242-2.464-2.42-2.464c-0.99,0-2.024,0.308-2.772,0.792l-0.44-1.276
		c0.88-0.572,2.156-0.946,3.499-0.946c3.257,0,4.049,2.222,4.049,4.356v3.983c0,0.924,0.044,1.826,0.176,2.552H163.252z
		 M162.966,87.593c-2.112-0.044-4.51,0.33-4.51,2.398c0,1.254,0.836,1.849,1.826,1.849c1.386,0,2.266-0.88,2.574-1.782
		c0.066-0.198,0.11-0.418,0.11-0.616V87.593z"/>
	<path d="M177.157,77.405v12.872c0,0.946,0.022,2.024,0.088,2.75h-1.738l-0.088-1.848h-0.044c-0.594,1.188-1.893,2.09-3.631,2.09
		c-2.574,0-4.555-2.179-4.555-5.413c-0.022-3.542,2.179-5.721,4.775-5.721c1.628,0,2.729,0.77,3.212,1.628h0.044v-6.359H177.157z
		 M175.22,86.713c0-0.242-0.022-0.572-0.088-0.814c-0.286-1.232-1.342-2.245-2.794-2.245c-2.002,0-3.19,1.76-3.19,4.115
		c0,2.156,1.056,3.938,3.146,3.938c1.298,0,2.486-0.858,2.838-2.31c0.066-0.264,0.088-0.528,0.088-0.836V86.713z"/>
	<path d="M187.628,91.377h-0.044c-0.572,1.056-1.76,1.893-3.477,1.893c-2.486,0-4.511-2.156-4.511-5.391
		c0-3.982,2.575-5.743,4.819-5.743c1.65,0,2.75,0.814,3.278,1.848h0.044l0.066-1.606h1.826c-0.044,0.902-0.066,1.826-0.066,2.926
		v12.08h-1.937V91.377z M187.628,86.691c0-0.264-0.022-0.572-0.088-0.814c-0.286-1.188-1.32-2.201-2.772-2.201
		c-2.002,0-3.212,1.694-3.212,4.093c0,2.112,1.012,3.96,3.146,3.96c1.254,0,2.333-0.77,2.772-2.112
		c0.088-0.264,0.154-0.638,0.154-0.924V86.691z"/>
	<path d="M201.664,90.123c0,1.1,0.022,2.068,0.088,2.904h-1.716l-0.11-1.738h-0.044c-0.506,0.858-1.628,1.98-3.521,1.98
		c-1.672,0-3.675-0.924-3.675-4.665v-6.227h1.937v5.896c0,2.024,0.616,3.389,2.376,3.389c1.298,0,2.2-0.902,2.552-1.76
		c0.11-0.286,0.176-0.638,0.176-0.99v-6.535h1.937V90.123z"/>
	<path d="M207.031,79.385c0.022,0.66-0.462,1.188-1.232,1.188c-0.682,0-1.166-0.528-1.166-1.188c0-0.682,0.506-1.21,1.21-1.21
		C206.569,78.175,207.031,78.703,207.031,79.385z M204.875,93.028V82.378h1.936v10.649H204.875z"/>
	<path d="M210.023,85.7c0-1.254-0.022-2.332-0.088-3.322h1.694l0.066,2.09h0.088c0.484-1.43,1.65-2.333,2.948-2.333
		c0.22,0,0.374,0.022,0.55,0.066v1.826c-0.198-0.044-0.396-0.066-0.66-0.066c-1.364,0-2.333,1.034-2.597,2.486
		c-0.044,0.264-0.088,0.572-0.088,0.902v5.677h-1.914V85.7z"/>
	<path d="M219.461,79.385c0.022,0.66-0.462,1.188-1.232,1.188c-0.682,0-1.166-0.528-1.166-1.188c0-0.682,0.506-1.21,1.21-1.21
		C218.999,78.175,219.461,78.703,219.461,79.385z M217.305,93.028V82.378h1.936v10.649H217.305z"/>
	<path d="M222.453,85.7c0-1.254-0.022-2.332-0.088-3.322h1.694l0.066,2.09h0.088c0.484-1.43,1.65-2.333,2.948-2.333
		c0.22,0,0.374,0.022,0.55,0.066v1.826c-0.198-0.044-0.396-0.066-0.66-0.066c-1.364,0-2.333,1.034-2.597,2.486
		c-0.044,0.264-0.088,0.572-0.088,0.902v5.677h-1.914V85.7z"/>
	<path d="M236.355,88.055c0.044,2.618,1.716,3.696,3.652,3.696c1.386,0,2.222-0.242,2.948-0.55l0.33,1.386
		c-0.682,0.308-1.848,0.66-3.542,0.66c-3.278,0-5.237-2.157-5.237-5.369s1.893-5.743,4.995-5.743c3.476,0,4.4,3.059,4.4,5.017
		c0,0.396-0.044,0.704-0.066,0.902H236.355z M242.032,86.669c0.022-1.232-0.506-3.146-2.685-3.146c-1.958,0-2.816,1.804-2.97,3.146
		H242.032z"/>
	<path d="M246.299,85.26c0-1.1-0.022-2.002-0.088-2.882h1.716l0.11,1.76h0.044c0.528-1.012,1.76-2.002,3.521-2.002
		c1.474,0,3.762,0.88,3.762,4.533v6.359h-1.936v-6.139c0-1.716-0.638-3.146-2.464-3.146c-1.276,0-2.267,0.902-2.597,1.98
		c-0.088,0.242-0.132,0.572-0.132,0.902v6.403h-1.936V85.26z"/>
	<path d="M265.218,88.055c0.044,2.618,1.716,3.696,3.652,3.696c1.386,0,2.222-0.242,2.948-0.55l0.33,1.386
		c-0.682,0.308-1.848,0.66-3.542,0.66c-3.278,0-5.237-2.157-5.237-5.369s1.893-5.743,4.995-5.743c3.476,0,4.4,3.059,4.4,5.017
		c0,0.396-0.044,0.704-0.066,0.902H265.218z M270.895,86.669c0.022-1.232-0.506-3.146-2.685-3.146c-1.958,0-2.816,1.804-2.97,3.146
		H270.895z"/>
	<path d="M275.162,77.405h1.936v15.622h-1.936V77.405z"/>
	<path d="M288.317,79.32v3.059h2.772v1.474h-2.772v5.743c0,1.32,0.374,2.068,1.452,2.068c0.506,0,0.88-0.066,1.123-0.132
		l0.088,1.452c-0.374,0.154-0.968,0.264-1.716,0.264c-0.902,0-1.628-0.286-2.09-0.814c-0.55-0.572-0.748-1.518-0.748-2.772v-5.809
		h-1.65v-1.474h1.65v-2.553L288.317,79.32z"/>
	<path d="M293.267,85.7c0-1.254-0.022-2.332-0.088-3.322h1.694l0.066,2.09h0.088c0.484-1.43,1.65-2.333,2.948-2.333
		c0.22,0,0.374,0.022,0.55,0.066v1.826c-0.198-0.044-0.396-0.066-0.66-0.066c-1.364,0-2.333,1.034-2.597,2.486
		c-0.044,0.264-0.088,0.572-0.088,0.902v5.677h-1.914V85.7z"/>
	<path d="M306.247,93.028l-0.154-1.342h-0.066c-0.594,0.836-1.738,1.584-3.257,1.584c-2.156,0-3.256-1.519-3.256-3.059
		c0-2.574,2.289-3.982,6.403-3.96v-0.22c0-0.88-0.242-2.464-2.42-2.464c-0.99,0-2.024,0.308-2.772,0.792l-0.44-1.276
		c0.88-0.572,2.156-0.946,3.499-0.946c3.257,0,4.049,2.222,4.049,4.356v3.983c0,0.924,0.044,1.826,0.176,2.552H306.247z
		 M305.961,87.593c-2.112-0.044-4.51,0.33-4.51,2.398c0,1.254,0.836,1.849,1.826,1.849c1.386,0,2.266-0.88,2.574-1.782
		c0.066-0.198,0.11-0.418,0.11-0.616V87.593z"/>
	<path d="M310.955,85.26c0-1.1-0.022-2.002-0.088-2.882h1.716l0.11,1.76h0.044c0.528-1.012,1.76-2.002,3.521-2.002
		c1.474,0,3.762,0.88,3.762,4.533v6.359h-1.936v-6.139c0-1.716-0.638-3.146-2.464-3.146c-1.276,0-2.267,0.902-2.597,1.98
		c-0.088,0.242-0.132,0.572-0.132,0.902v6.403h-1.936V85.26z"/>
	<path d="M322.9,91.047c0.572,0.374,1.584,0.771,2.552,0.771c1.408,0,2.068-0.704,2.068-1.584c0-0.924-0.55-1.43-1.98-1.958
		c-1.914-0.682-2.816-1.738-2.816-3.014c0-1.716,1.386-3.125,3.675-3.125c1.078,0,2.024,0.308,2.618,0.66l-0.484,1.408
		c-0.418-0.264-1.188-0.616-2.178-0.616c-1.145,0-1.782,0.66-1.782,1.452c0,0.88,0.638,1.276,2.024,1.804
		c1.849,0.704,2.794,1.628,2.794,3.213c0,1.87-1.452,3.19-3.982,3.19c-1.166,0-2.244-0.286-2.993-0.726L322.9,91.047z"/>
	<path d="M339.467,92.632c-0.506,0.264-1.628,0.616-3.059,0.616c-3.212,0-5.303-2.179-5.303-5.435c0-3.278,2.245-5.655,5.721-5.655
		c1.144,0,2.156,0.286,2.684,0.55l-0.44,1.496c-0.462-0.264-1.188-0.506-2.244-0.506c-2.442,0-3.763,1.804-3.763,4.026
		c0,2.464,1.584,3.982,3.696,3.982c1.101,0,1.827-0.286,2.376-0.528L339.467,92.632z"/>
	<path d="M350.644,90.123c0,1.1,0.022,2.068,0.088,2.904h-1.716l-0.11-1.738h-0.044c-0.506,0.858-1.628,1.98-3.521,1.98
		c-1.672,0-3.675-0.924-3.675-4.665v-6.227h1.937v5.896c0,2.024,0.616,3.389,2.376,3.389c1.298,0,2.201-0.902,2.552-1.76
		c0.109-0.286,0.176-0.638,0.176-0.99v-6.535h1.937V90.123z"/>
	<path d="M353.854,85.7c0-1.254-0.022-2.332-0.088-3.322h1.694l0.065,2.09h0.088c0.484-1.43,1.65-2.333,2.948-2.333
		c0.221,0,0.375,0.022,0.551,0.066v1.826c-0.198-0.044-0.396-0.066-0.66-0.066c-1.364,0-2.332,1.034-2.597,2.486
		c-0.044,0.264-0.088,0.572-0.088,0.902v5.677h-1.914V85.7z"/>
	<path d="M360.785,91.047c0.572,0.374,1.585,0.771,2.553,0.771c1.408,0,2.068-0.704,2.068-1.584c0-0.924-0.55-1.43-1.98-1.958
		c-1.914-0.682-2.816-1.738-2.816-3.014c0-1.716,1.387-3.125,3.675-3.125c1.078,0,2.024,0.308,2.618,0.66l-0.484,1.408
		c-0.418-0.264-1.188-0.616-2.178-0.616c-1.145,0-1.782,0.66-1.782,1.452c0,0.88,0.638,1.276,2.024,1.804
		c1.848,0.704,2.794,1.628,2.794,3.213c0,1.87-1.452,3.19-3.982,3.19c-1.166,0-2.244-0.286-2.992-0.726L360.785,91.047z"/>
	<path d="M379.397,87.615c0,3.938-2.728,5.655-5.303,5.655c-2.882,0-5.104-2.112-5.104-5.479c0-3.564,2.332-5.655,5.281-5.655
		C377.33,82.136,379.397,84.358,379.397,87.615z M370.948,87.725c0,2.333,1.343,4.093,3.235,4.093c1.848,0,3.234-1.738,3.234-4.137
		c0-1.804-0.902-4.093-3.19-4.093C371.938,83.588,370.948,85.7,370.948,87.725z"/>
	<path d="M396.668,77.405v12.872c0,0.946,0.021,2.024,0.088,2.75h-1.738l-0.088-1.848h-0.044c-0.595,1.188-1.893,2.09-3.631,2.09
		c-2.574,0-4.555-2.179-4.555-5.413c-0.021-3.542,2.179-5.721,4.774-5.721c1.629,0,2.729,0.77,3.213,1.628h0.044v-6.359H396.668z
		 M394.731,86.713c0-0.242-0.021-0.572-0.088-0.814c-0.286-1.232-1.342-2.245-2.794-2.245c-2.003,0-3.191,1.76-3.191,4.115
		c0,2.156,1.057,3.938,3.146,3.938c1.299,0,2.486-0.858,2.839-2.31c0.066-0.264,0.088-0.528,0.088-0.836V86.713z"/>
	<path d="M400.957,88.055c0.044,2.618,1.716,3.696,3.652,3.696c1.386,0,2.223-0.242,2.948-0.55l0.33,1.386
		c-0.682,0.308-1.848,0.66-3.542,0.66c-3.279,0-5.237-2.157-5.237-5.369s1.893-5.743,4.995-5.743c3.477,0,4.4,3.059,4.4,5.017
		c0,0.396-0.044,0.704-0.066,0.902H400.957z M406.634,86.669c0.021-1.232-0.506-3.146-2.685-3.146c-1.958,0-2.816,1.804-2.971,3.146
		H406.634z"/>
	<path d="M416.268,91.047c0.572,0.374,1.585,0.771,2.553,0.771c1.408,0,2.068-0.704,2.068-1.584c0-0.924-0.55-1.43-1.98-1.958
		c-1.914-0.682-2.816-1.738-2.816-3.014c0-1.716,1.387-3.125,3.675-3.125c1.078,0,2.024,0.308,2.618,0.66l-0.484,1.408
		c-0.418-0.264-1.188-0.616-2.178-0.616c-1.145,0-1.782,0.66-1.782,1.452c0,0.88,0.638,1.276,2.024,1.804
		c1.848,0.704,2.794,1.628,2.794,3.213c0,1.87-1.452,3.19-3.982,3.19c-1.166,0-2.244-0.286-2.992-0.726L416.268,91.047z"/>
	<path d="M434.155,90.123c0,1.1,0.021,2.068,0.088,2.904h-1.716l-0.11-1.738h-0.044c-0.506,0.858-1.628,1.98-3.521,1.98
		c-1.672,0-3.675-0.924-3.675-4.665v-6.227h1.937v5.896c0,2.024,0.616,3.389,2.376,3.389c1.299,0,2.2-0.902,2.553-1.76
		c0.11-0.286,0.176-0.638,0.176-0.99v-6.535h1.937V90.123z"/>
	<path d="M445.153,79.385c0.021,0.66-0.462,1.188-1.232,1.188c-0.682,0-1.166-0.528-1.166-1.188c0-0.682,0.506-1.21,1.21-1.21
		C444.691,78.175,445.153,78.703,445.153,79.385z M442.997,93.028V82.378h1.937v10.649H442.997z"/>
	<path d="M448.145,85.26c0-1.1-0.022-2.002-0.088-2.882h1.716l0.11,1.76h0.044c0.528-1.012,1.76-2.002,3.521-2.002
		c1.474,0,3.763,0.88,3.763,4.533v6.359h-1.937v-6.139c0-1.716-0.639-3.146-2.465-3.146c-1.275,0-2.266,0.902-2.596,1.98
		c-0.088,0.242-0.132,0.572-0.132,0.902v6.403h-1.937V85.26z"/>
	<path d="M460.553,93.028v-9.175h-1.497v-1.474h1.497v-0.506c0-1.496,0.33-2.86,1.231-3.718c0.727-0.704,1.694-0.99,2.597-0.99
		c0.682,0,1.276,0.154,1.65,0.308l-0.265,1.496c-0.285-0.132-0.682-0.242-1.231-0.242c-1.65,0-2.068,1.453-2.068,3.081v0.572h2.574
		v1.474h-2.574v9.175H460.553z"/>
	<path d="M472.675,93.028l-0.154-1.342h-0.065c-0.594,0.836-1.738,1.584-3.257,1.584c-2.156,0-3.256-1.519-3.256-3.059
		c0-2.574,2.288-3.982,6.402-3.96v-0.22c0-0.88-0.242-2.464-2.42-2.464c-0.99,0-2.024,0.308-2.772,0.792l-0.44-1.276
		c0.88-0.572,2.156-0.946,3.499-0.946c3.256,0,4.048,2.222,4.048,4.356v3.983c0,0.924,0.044,1.826,0.177,2.552H472.675z
		 M472.389,87.593c-2.112-0.044-4.511,0.33-4.511,2.398c0,1.254,0.837,1.849,1.826,1.849c1.387,0,2.267-0.88,2.575-1.782
		c0.065-0.198,0.109-0.418,0.109-0.616V87.593z"/>
	<path d="M477.382,85.26c0-1.1-0.022-2.002-0.088-2.882h1.716l0.11,1.76h0.044c0.528-1.012,1.76-2.002,3.521-2.002
		c1.474,0,3.763,0.88,3.763,4.533v6.359h-1.937v-6.139c0-1.716-0.638-3.146-2.465-3.146c-1.275,0-2.266,0.902-2.596,1.98
		c-0.088,0.242-0.132,0.572-0.132,0.902v6.403h-1.937V85.26z"/>
	<path d="M497.183,92.632c-0.506,0.264-1.628,0.616-3.059,0.616c-3.212,0-5.303-2.179-5.303-5.435c0-3.278,2.244-5.655,5.721-5.655
		c1.145,0,2.156,0.286,2.685,0.55l-0.439,1.496c-0.463-0.264-1.188-0.506-2.245-0.506c-2.442,0-3.763,1.804-3.763,4.026
		c0,2.464,1.585,3.982,3.697,3.982c1.1,0,1.826-0.286,2.376-0.528L497.183,92.632z"/>
	<path d="M501.604,79.385c0.021,0.66-0.462,1.188-1.232,1.188c-0.682,0-1.166-0.528-1.166-1.188c0-0.682,0.506-1.21,1.21-1.21
		C501.143,78.175,501.604,78.703,501.604,79.385z M499.448,93.028V82.378h1.937v10.649H499.448z"/>
	<path d="M510.492,93.028l-0.154-1.342h-0.065c-0.595,0.836-1.738,1.584-3.257,1.584c-2.156,0-3.256-1.519-3.256-3.059
		c0-2.574,2.288-3.982,6.402-3.96v-0.22c0-0.88-0.242-2.464-2.42-2.464c-0.99,0-2.024,0.308-2.772,0.792l-0.44-1.276
		c0.88-0.572,2.156-0.946,3.499-0.946c3.256,0,4.048,2.222,4.048,4.356v3.983c0,0.924,0.044,1.826,0.177,2.552H510.492z
		 M510.206,87.593c-2.112-0.044-4.511,0.33-4.511,2.398c0,1.254,0.837,1.849,1.826,1.849c1.387,0,2.267-0.88,2.575-1.782
		c0.065-0.198,0.109-0.418,0.109-0.616V87.593z"/>
	<path d="M513.945,95.734c0.483-1.298,1.078-3.653,1.319-5.259l2.156-0.22c-0.506,1.87-1.474,4.313-2.09,5.347L513.945,95.734z"/>
	<path d="M525.385,85.855c0-1.364-0.044-2.464-0.088-3.477h1.738l0.088,1.826h0.044c0.792-1.298,2.046-2.068,3.784-2.068
		c2.574,0,4.511,2.178,4.511,5.413c0,3.829-2.332,5.721-4.841,5.721c-1.408,0-2.641-0.616-3.278-1.672h-0.044v5.787h-1.914V85.855z
		 M527.299,88.693c0,0.286,0.044,0.55,0.088,0.792c0.353,1.342,1.519,2.266,2.904,2.266c2.047,0,3.234-1.672,3.234-4.114
		c0-2.134-1.122-3.961-3.168-3.961c-1.32,0-2.553,0.946-2.927,2.398c-0.065,0.242-0.132,0.528-0.132,0.792V88.693z"/>
	<path d="M547.539,87.615c0,3.938-2.728,5.655-5.303,5.655c-2.882,0-5.104-2.112-5.104-5.479c0-3.564,2.333-5.655,5.281-5.655
		C545.472,82.136,547.539,84.358,547.539,87.615z M539.09,87.725c0,2.333,1.343,4.093,3.235,4.093c1.848,0,3.234-1.738,3.234-4.137
		c0-1.804-0.902-4.093-3.19-4.093C540.08,83.588,539.09,85.7,539.09,87.725z"/>
	<path d="M549.98,85.7c0-1.254-0.022-2.332-0.088-3.322h1.694l0.065,2.09h0.088c0.484-1.43,1.65-2.333,2.948-2.333
		c0.221,0,0.374,0.022,0.551,0.066v1.826c-0.198-0.044-0.396-0.066-0.66-0.066c-1.364,0-2.333,1.034-2.597,2.486
		c-0.044,0.264-0.088,0.572-0.088,0.902v5.677h-1.914V85.7z"/>
	<path d="M562.807,85.26c0-1.1-0.022-2.002-0.088-2.882h1.694l0.088,1.716h0.065c0.595-1.012,1.585-1.958,3.345-1.958
		c1.452,0,2.553,0.88,3.015,2.134h0.044c0.33-0.594,0.748-1.056,1.188-1.386c0.638-0.484,1.342-0.748,2.354-0.748
		c1.408,0,3.499,0.924,3.499,4.621v6.271h-1.893v-6.029c0-2.046-0.748-3.278-2.311-3.278c-1.1,0-1.958,0.814-2.288,1.76
		c-0.088,0.264-0.154,0.616-0.154,0.968v6.579h-1.892v-6.381c0-1.694-0.748-2.926-2.223-2.926c-1.21,0-2.09,0.968-2.398,1.936
		c-0.109,0.286-0.154,0.616-0.154,0.946v6.425h-1.892V85.26z"/>
	<path d="M582.232,88.055c0.044,2.618,1.716,3.696,3.652,3.696c1.386,0,2.223-0.242,2.948-0.55l0.33,1.386
		c-0.682,0.308-1.848,0.66-3.542,0.66c-3.279,0-5.237-2.157-5.237-5.369s1.893-5.743,4.995-5.743c3.477,0,4.4,3.059,4.4,5.017
		c0,0.396-0.044,0.704-0.066,0.902H582.232z M587.909,86.669c0.021-1.232-0.506-3.146-2.685-3.146c-1.958,0-2.816,1.804-2.971,3.146
		H587.909z"/>
	<path d="M601.373,77.405v12.872c0,0.946,0.021,2.024,0.088,2.75h-1.738l-0.088-1.848h-0.044c-0.595,1.188-1.893,2.09-3.631,2.09
		c-2.574,0-4.555-2.179-4.555-5.413c-0.021-3.542,2.179-5.721,4.774-5.721c1.629,0,2.729,0.77,3.213,1.628h0.044v-6.359H601.373z
		 M599.437,86.713c0-0.242-0.021-0.572-0.088-0.814c-0.286-1.232-1.342-2.245-2.794-2.245c-2.003,0-3.191,1.76-3.191,4.115
		c0,2.156,1.057,3.938,3.146,3.938c1.299,0,2.486-0.858,2.839-2.31c0.066-0.264,0.088-0.528,0.088-0.836V86.713z"/>
	<path d="M606.74,79.385c0.021,0.66-0.462,1.188-1.232,1.188c-0.682,0-1.166-0.528-1.166-1.188c0-0.682,0.506-1.21,1.21-1.21
		C606.278,78.175,606.74,78.703,606.74,79.385z M604.584,93.028V82.378h1.937v10.649H604.584z"/>
	<path d="M619.368,87.615c0,3.938-2.728,5.655-5.303,5.655c-2.882,0-5.104-2.112-5.104-5.479c0-3.564,2.332-5.655,5.281-5.655
		C617.301,82.136,619.368,84.358,619.368,87.615z M610.919,87.725c0,2.333,1.343,4.093,3.235,4.093c1.848,0,3.234-1.738,3.234-4.137
		c0-1.804-0.902-4.093-3.19-4.093C611.909,83.588,610.919,85.7,610.919,87.725z"/>
	<path d="M636.638,77.405v12.872c0,0.946,0.021,2.024,0.088,2.75h-1.738l-0.088-1.848h-0.044c-0.595,1.188-1.893,2.09-3.631,2.09
		c-2.574,0-4.555-2.179-4.555-5.413c-0.021-3.542,2.179-5.721,4.774-5.721c1.629,0,2.729,0.77,3.213,1.628h0.044v-6.359H636.638z
		 M634.701,86.713c0-0.242-0.021-0.572-0.088-0.814c-0.286-1.232-1.342-2.245-2.795-2.245c-2.002,0-3.19,1.76-3.19,4.115
		c0,2.156,1.057,3.938,3.146,3.938c1.299,0,2.486-0.858,2.839-2.31c0.066-0.264,0.088-0.528,0.088-0.836V86.713z"/>
	<path d="M640.927,88.055c0.044,2.618,1.716,3.696,3.652,3.696c1.386,0,2.223-0.242,2.948-0.55l0.33,1.386
		c-0.682,0.308-1.848,0.66-3.542,0.66c-3.279,0-5.237-2.157-5.237-5.369s1.893-5.743,4.995-5.743c3.477,0,4.4,3.059,4.4,5.017
		c0,0.396-0.044,0.704-0.066,0.902H640.927z M646.604,86.669c0.021-1.232-0.506-3.146-2.685-3.146c-1.958,0-2.816,1.804-2.971,3.146
		H646.604z"/>
	<path d="M665.413,90.123c0,1.1,0.021,2.068,0.088,2.904h-1.716l-0.11-1.738h-0.044c-0.506,0.858-1.628,1.98-3.521,1.98
		c-1.672,0-3.675-0.924-3.675-4.665v-6.227h1.937v5.896c0,2.024,0.616,3.389,2.376,3.389c1.299,0,2.2-0.902,2.553-1.76
		c0.11-0.286,0.176-0.638,0.176-0.99v-6.535h1.937V90.123z"/>
	<path d="M668.624,85.26c0-1.1-0.022-2.002-0.088-2.882h1.716l0.11,1.76h0.044c0.528-1.012,1.76-2.002,3.521-2.002
		c1.474,0,3.763,0.88,3.763,4.533v6.359h-1.937v-6.139c0-1.716-0.638-3.146-2.465-3.146c-1.275,0-2.266,0.902-2.596,1.98
		c-0.088,0.242-0.132,0.572-0.132,0.902v6.403h-1.937V85.26z"/>
	<path d="M686.73,93.028l-0.154-1.342h-0.065c-0.595,0.836-1.738,1.584-3.257,1.584c-2.156,0-3.256-1.519-3.256-3.059
		c0-2.574,2.288-3.982,6.402-3.96v-0.22c0-0.88-0.242-2.464-2.42-2.464c-0.99,0-2.024,0.308-2.772,0.792l-0.44-1.276
		c0.88-0.572,2.156-0.946,3.499-0.946c3.256,0,4.048,2.222,4.048,4.356v3.983c0,0.924,0.044,1.826,0.177,2.552H686.73z
		 M686.444,87.593c-2.112-0.044-4.511,0.33-4.511,2.398c0,1.254,0.837,1.849,1.826,1.849c1.387,0,2.267-0.88,2.575-1.782
		c0.065-0.198,0.109-0.418,0.109-0.616V87.593z"/>
	<path d="M301.648,112.255c0-1.364-0.044-2.464-0.088-3.477h1.738l0.088,1.826h0.044c0.792-1.298,2.046-2.068,3.784-2.068
		c2.575,0,4.511,2.178,4.511,5.413c0,3.829-2.332,5.721-4.841,5.721c-1.408,0-2.64-0.616-3.278-1.672h-0.044v5.787h-1.914V112.255z
		 M303.563,115.093c0,0.286,0.044,0.55,0.088,0.792c0.352,1.342,1.519,2.266,2.904,2.266c2.046,0,3.235-1.672,3.235-4.114
		c0-2.134-1.123-3.961-3.168-3.961c-1.32,0-2.553,0.946-2.927,2.398c-0.066,0.242-0.132,0.528-0.132,0.792V115.093z"/>
	<path d="M320.063,119.427l-0.154-1.342h-0.066c-0.594,0.836-1.738,1.584-3.257,1.584c-2.156,0-3.256-1.519-3.256-3.059
		c0-2.574,2.289-3.982,6.403-3.96v-0.22c0-0.88-0.242-2.464-2.42-2.464c-0.99,0-2.024,0.308-2.772,0.792l-0.44-1.276
		c0.88-0.572,2.156-0.946,3.499-0.946c3.257,0,4.049,2.222,4.049,4.356v3.983c0,0.924,0.044,1.826,0.176,2.552H320.063z
		 M319.776,113.993c-2.112-0.044-4.51,0.33-4.51,2.398c0,1.254,0.836,1.849,1.826,1.849c1.386,0,2.266-0.88,2.574-1.782
		c0.066-0.198,0.11-0.418,0.11-0.616V113.993z M320.745,104.179l-2.684,3.146h-1.386l1.936-3.146H320.745z"/>
	<path d="M333.945,108.778c-0.044,0.77-0.088,1.628-0.088,2.926v6.183c0,2.442-0.484,3.938-1.518,4.862
		c-1.034,0.968-2.53,1.276-3.873,1.276c-1.276,0-2.685-0.308-3.542-0.88l0.484-1.475c0.704,0.44,1.804,0.836,3.125,0.836
		c1.98,0,3.433-1.034,3.433-3.719v-1.188h-0.044c-0.594,0.99-1.738,1.782-3.389,1.782c-2.64,0-4.533-2.245-4.533-5.193
		c0-3.608,2.354-5.655,4.797-5.655c1.848,0,2.86,0.968,3.322,1.848h0.044l0.088-1.606H333.945z M331.943,112.981
		c0-0.33-0.022-0.616-0.11-0.88c-0.352-1.122-1.298-2.046-2.707-2.046c-1.848,0-3.168,1.563-3.168,4.027
		c0,2.09,1.056,3.829,3.146,3.829c1.188,0,2.266-0.748,2.685-1.98c0.11-0.33,0.154-0.704,0.154-1.034V112.981z"/>
	<path d="M339.092,105.785c0.022,0.66-0.462,1.188-1.232,1.188c-0.682,0-1.166-0.528-1.166-1.188c0-0.682,0.506-1.21,1.21-1.21
		C338.63,104.575,339.092,105.103,339.092,105.785z M336.936,119.427v-10.649h1.936v10.649H336.936z"/>
	<path d="M342.084,111.66c0-1.1-0.022-2.002-0.088-2.882h1.716l0.11,1.76h0.044c0.528-1.012,1.76-2.002,3.521-2.002
		c1.475,0,3.762,0.88,3.762,4.533v6.359h-1.936v-6.139c0-1.716-0.639-3.146-2.464-3.146c-1.276,0-2.267,0.902-2.597,1.98
		c-0.088,0.242-0.132,0.572-0.132,0.902v6.403h-1.936V111.66z"/>
	<path d="M360.19,119.427l-0.154-1.342h-0.065c-0.594,0.836-1.738,1.584-3.257,1.584c-2.156,0-3.256-1.519-3.256-3.059
		c0-2.574,2.288-3.982,6.402-3.96v-0.22c0-0.88-0.242-2.464-2.42-2.464c-0.99,0-2.024,0.308-2.772,0.792l-0.44-1.276
		c0.88-0.572,2.156-0.946,3.499-0.946c3.256,0,4.048,2.222,4.048,4.356v3.983c0,0.924,0.044,1.826,0.177,2.552H360.19z
		 M359.904,113.993c-2.112-0.044-4.511,0.33-4.511,2.398c0,1.254,0.837,1.849,1.826,1.849c1.387,0,2.267-0.88,2.575-1.782
		c0.065-0.198,0.109-0.418,0.109-0.616V113.993z"/>
	<path d="M371.256,119.427l-3.763-14.83h2.024l1.76,7.503c0.44,1.848,0.837,3.697,1.101,5.127h0.044
		c0.242-1.474,0.704-3.234,1.21-5.149l1.98-7.481h2.002l1.805,7.525c0.418,1.76,0.814,3.521,1.034,5.083h0.044
		c0.308-1.628,0.726-3.279,1.188-5.127l1.958-7.481h1.958l-4.202,14.83h-2.003l-1.87-7.723c-0.462-1.892-0.77-3.344-0.968-4.841
		h-0.044c-0.265,1.475-0.595,2.927-1.145,4.841l-2.112,7.723H371.256z"/>
	<path d="M387.734,114.455c0.044,2.618,1.716,3.696,3.652,3.696c1.386,0,2.223-0.242,2.948-0.55l0.33,1.386
		c-0.682,0.308-1.848,0.66-3.542,0.66c-3.279,0-5.237-2.156-5.237-5.369c0-3.212,1.893-5.743,4.995-5.743
		c3.477,0,4.4,3.059,4.4,5.017c0,0.396-0.044,0.704-0.066,0.902H387.734z M393.411,113.069c0.021-1.232-0.506-3.146-2.685-3.146
		c-1.958,0-2.816,1.804-2.971,3.146H393.411z"/>
	<path d="M397.59,119.427c0.044-0.726,0.088-1.804,0.088-2.75v-12.872h1.914v6.689h0.044c0.683-1.188,1.914-1.958,3.631-1.958
		c2.64,0,4.511,2.2,4.488,5.435c0,3.806-2.398,5.699-4.774,5.699c-1.54,0-2.772-0.594-3.564-2.002h-0.066l-0.088,1.76H397.59z
		 M399.592,115.159c0,0.242,0.044,0.484,0.088,0.704c0.374,1.342,1.496,2.266,2.904,2.266c2.024,0,3.234-1.65,3.234-4.092
		c0-2.134-1.1-3.961-3.168-3.961c-1.32,0-2.553,0.902-2.948,2.376c-0.044,0.22-0.11,0.484-0.11,0.792V115.159z"/>
	<path d="M409.205,118.283c0-0.814,0.55-1.386,1.32-1.386c0.77,0,1.298,0.572,1.298,1.386c0,0.792-0.506,1.386-1.32,1.386
		C409.732,119.67,409.205,119.075,409.205,118.283z"/>
</g>
<g>
	<rect y="5.853" class="st1" width="10.536" height="121.75"/>
	<rect y="5.853" class="st1" width="45.656" height="11.707"/>
	<rect y="115.897" class="st1" width="45.656" height="11.707"/>
</g>
<g>
	
		<rect x="699.388" y="0" transform="matrix(-1 -4.488777e-11 4.488777e-11 -1 1409.3125 121.75)" class="st1" width="10.536" height="121.75"/>
	
		<rect x="664.268" y="0" transform="matrix(-1 -4.490109e-11 4.490109e-11 -1 1374.1923 11.7067)" class="st1" width="45.656" height="11.707"/>
	
		<rect x="664.268" y="110.043" transform="matrix(-1 -4.494062e-11 4.494062e-11 -1 1374.1923 231.7933)" class="st1" width="45.656" height="11.707"/>
</g>
</svg>