<!-- Generator: Adobe Illustrator 22.0.0, SVG Export Plug-In  -->
<svg version="1.1"
	 xmlns="http://www.w3.org/2000/svg" xmlns:xlink="http://www.w3.org/1999/xlink" xmlns:a="http://ns.adobe.com/AdobeSVGViewerExtensions/3.0/"
	 x="0px" y="0px" width="6.548px" height="6.544px" viewBox="0 0 6.548 6.544" style="enable-background:new 0 0 6.548 6.544;"
	 xml:space="preserve">
<style type="text/css">
	.st0{fill:#FFFFFF;}
	.st1{fill-rule:evenodd;clip-rule:evenodd;fill:#FFFFFF;}
</style>
<defs>
</defs>
<g>
	<g>
		<path class="st0" d="M3.273,6.544C1.469,6.544,0,5.075,0,3.27C0,1.467,1.469,0,3.273,0C5.08,0,6.548,1.467,6.548,3.27
			C6.548,5.075,5.08,6.544,3.273,6.544z M3.273,0.43c-1.568,0-2.843,1.274-2.843,2.84c0,1.57,1.275,2.844,2.843,2.844
			c1.569,0,2.845-1.274,2.845-2.844C6.118,1.704,4.843,0.43,3.273,0.43z"/>
	</g>
	<g>
		<g>
			<path class="st1" d="M4.152,4.89c-0.121,0-0.237-0.024-0.353-0.057C3.023,4.608,2.442,4.125,1.971,3.485
				c-0.178-0.244-0.339-0.491-0.396-0.79c-0.062-0.36,0.04-0.664,0.309-0.911c0.084-0.079,0.343-0.113,0.447-0.062
				c0.037,0.017,0.062,0.049,0.081,0.091C2.509,2.043,2.604,2.275,2.7,2.505C2.72,2.549,2.71,2.594,2.69,2.64
				C2.641,2.746,2.562,2.83,2.48,2.92c-0.059,0.06-0.062,0.118-0.017,0.192C2.739,3.567,3.117,3.9,3.611,4.098
				c0.077,0.032,0.133,0.02,0.182-0.04c0.084-0.103,0.171-0.205,0.249-0.311c0.054-0.072,0.114-0.082,0.19-0.049
				c0.166,0.072,0.328,0.151,0.492,0.23C4.76,3.945,4.795,3.96,4.832,3.977c0.166,0.086,0.163,0.086,0.15,0.272
				C4.955,4.601,4.686,4.783,4.367,4.867C4.297,4.89,4.226,4.89,4.152,4.89z"/>
		</g>
		<g>
			<g>
				<path class="st1" d="M4.461,2.122C4.591,2.233,4.683,2.381,4.76,2.537c0.057,0.124,0.094,0.259,0.121,0.395
					c0.002,0.027,0.013,0.055-0.012,0.084C4.794,3.023,4.72,3.023,4.646,3.028c-0.027,0.005-0.037,0-0.04-0.029
					C4.572,2.741,4.466,2.515,4.29,2.331C4.034,2.053,3.713,1.919,3.335,1.929c-0.008,0-0.017,0-0.044,0
					c-0.007-0.077-0.007-0.161-0.01-0.247c0.017-0.027,0.045-0.027,0.071-0.027c0.158,0,0.309,0.017,0.457,0.061
					c0.123,0.04,0.239,0.089,0.349,0.158c0.03,0.018,0.061,0.04,0.091,0.069c0.027,0.022,0.074,0.061,0.099,0.084
					C4.377,2.048,4.434,2.094,4.461,2.122z"/>
			</g>
			<g>
				<path class="st1" d="M4.095,2.331C4.302,2.51,4.428,2.736,4.47,3.004C4.475,3.038,4.466,3.05,4.434,3.05
					c-0.067,0-0.131,0.007-0.198,0.018c-0.02,0-0.029-0.007-0.03-0.03C4.172,2.801,4.053,2.616,3.86,2.482
					C3.715,2.381,3.552,2.331,3.376,2.336c-0.03,0-0.037-0.005-0.04-0.034c0-0.069-0.008-0.134-0.017-0.202
					c0-0.023,0.007-0.029,0.027-0.029C3.628,2.06,3.876,2.151,4.095,2.331z"/>
			</g>
			<g>
				<path class="st1" d="M3.816,3.1c-0.03-0.22-0.195-0.371-0.413-0.376c-0.022,0-0.03,0-0.03-0.023
					c-0.005-0.066-0.01-0.135-0.02-0.203c0-0.02,0.003-0.027,0.023-0.027c0.326-0.024,0.66,0.259,0.696,0.586
					c0,0.022-0.007,0.022-0.023,0.022C3.972,3.083,3.898,3.095,3.816,3.1z"/>
			</g>
		</g>
	</g>
</g>
</svg>