<!-- Generator: Adobe Illustrator 22.0.1, SVG Export Plug-In  -->
<svg version="1.1"
	 xmlns="http://www.w3.org/2000/svg" xmlns:xlink="http://www.w3.org/1999/xlink" xmlns:a="http://ns.adobe.com/AdobeSVGViewerExtensions/3.0/"
	 x="0px" y="0px" width="47.325px" height="47.324px" viewBox="0 0 47.325 47.324"
	 style="enable-background:new 0 0 47.325 47.324;" xml:space="preserve">
<style type="text/css">
	.st0{fill:#0D0E0E;}
	.st1{fill-rule:evenodd;clip-rule:evenodd;fill:#0D0E0E;}
</style>
<defs>
</defs>
<g>
	<g>
		<g>
			<path class="st0" d="M23.651,47.324C10.604,47.324,0,36.708,0,23.662S10.604,0,23.651,0c13.058,0,23.674,10.616,23.674,23.662
				S36.709,47.324,23.651,47.324z M23.651,3.11C12.329,3.11,3.11,12.317,3.11,23.662c0,11.322,9.22,20.552,20.541,20.552
				c11.345,0,20.565-9.231,20.565-20.552C44.216,12.317,34.996,3.11,23.651,3.11z"/>
		</g>
	</g>
	<g>
		<path class="st1" d="M32.53,11.661c-5.891,0-11.819,0-17.723,0c-2.101,0-3.182,1.092-3.182,3.207c0,2.914,0,5.855,0,8.794
			s0,5.928,0,8.891c0,2.016,1.117,3.135,3.11,3.135c5.939,0,11.855,0,17.795,0c2.054,0,3.158-1.118,3.158-3.183
			c0-5.903,0-11.782,0-17.685C35.688,12.753,34.583,11.661,32.53,11.661z M30.574,14.357c2.381,0,2.381,0,2.381,2.406
			c0,2.332,0,2.332-2.332,2.332c-2.381,0-2.381,0-2.381-2.381C28.242,14.357,28.242,14.357,30.574,14.357z M23.674,18.998
			c2.515,0,4.664,2.162,4.641,4.664c-0.025,2.575-2.187,4.713-4.713,4.664c-2.528-0.049-4.677-2.21-4.616-4.713
			C19.046,21.087,21.161,18.998,23.674,18.998z M32.955,31.533c-0.012,1.118-0.316,1.409-1.433,1.409c-2.625,0-5.248,0-7.871,0
			c-2.612,0-5.235,0-7.86,0c-1.105,0-1.42-0.291-1.42-1.409c0-2.916,0.024-5.855-0.037-8.77c0-0.826,0.231-1.02,1.009-0.995
			c1.093,0.097,1.117,0.049,0.984,1.092c-0.425,3.742,2.151,7.338,5.83,8.066c3.766,0.729,7.544-1.555,8.589-5.174
			c0.316-1.118,0.388-2.309,0.158-3.45c-0.086-0.413,0.024-0.485,0.388-0.485c1.664-0.122,1.664-0.17,1.664,1.555
			C32.955,26.068,32.955,28.813,32.955,31.533z"/>
	</g>
</g>
</svg>