<!-- Generator: Adobe Illustrator 22.0.1, SVG Export Plug-In  -->
<svg version="1.1"
	 xmlns="http://www.w3.org/2000/svg" xmlns:xlink="http://www.w3.org/1999/xlink" xmlns:a="http://ns.adobe.com/AdobeSVGViewerExtensions/3.0/"
	 x="0px" y="0px" width="47.338px" height="47.307px" viewBox="0 0 47.338 47.307"
	 style="enable-background:new 0 0 47.338 47.307;" xml:space="preserve">
<style type="text/css">
	.st0{fill:#0D0E0E;}
	.st1{fill:none;stroke:#0C0D0D;stroke-width:2;stroke-miterlimit:10;}
</style>
<defs>
</defs>
<g>
	<path class="st0" d="M23.663,47.307C10.616,47.307,0,36.69,0,23.638C0,10.605,10.616,0,23.663,0
		c13.058,0,23.674,10.605,23.674,23.638C47.338,36.69,36.721,47.307,23.663,47.307z M23.663,3.11
		C12.329,3.11,3.11,12.318,3.11,23.638c0,11.352,9.22,20.559,20.554,20.559c11.345,0,20.565-9.207,20.565-20.559
		C44.228,12.318,35.009,3.11,23.663,3.11z"/>
</g>
<g>
	<path class="st1" d="M35.822,33.288H11.516c-0.101,0-0.184-0.083-0.184-0.184V14.203c0-0.101,0.083-0.184,0.184-0.184h24.306
		c0.101,0,0.184,0.083,0.184,0.184v18.901C36.006,33.205,35.923,33.288,35.822,33.288z"/>
	<polyline class="st1" points="11.331,14.019 23.669,23.653 36.006,14.019 	"/>
</g>
</svg>