<!-- Generator: Adobe Illustrator 22.0.1, SVG Export Plug-In  -->
<svg version="1.1"
	 xmlns="http://www.w3.org/2000/svg" xmlns:xlink="http://www.w3.org/1999/xlink" xmlns:a="http://ns.adobe.com/AdobeSVGViewerExtensions/3.0/"
	 x="0px" y="0px" width="47.337px" height="47.325px" viewBox="0 0 47.337 47.325"
	 style="enable-background:new 0 0 47.337 47.325;" xml:space="preserve">
<style type="text/css">
	.st0{fill:#0D0E0E;}
</style>
<defs>
</defs>
<g>
	<g>
		<g>
			<path class="st0" d="M23.663,47.325C10.617,47.325,0,36.709,0,23.663S10.617,0,23.663,0s23.675,10.617,23.675,23.663
				S36.709,47.325,23.663,47.325z M23.663,3.11c-11.333,0-20.553,9.22-20.553,20.553s9.22,20.553,20.553,20.553
				s20.565-9.22,20.565-20.553S34.996,3.11,23.663,3.11z"/>
		</g>
	</g>
	<g>
		<g>
			<path class="st0" d="M16.532,17.383h3.097v-1.579c0-1.786,0.194-3.11,0.559-3.972c0.389-0.887,1.081-1.567,2.102-2.126
				c0.996-0.559,2.284-0.826,3.838-0.826c1.591,0,3.134,0.231,4.664,0.705l-0.753,3.887c-0.899-0.206-1.749-0.316-2.563-0.316
				c-0.814,0-1.385,0.194-1.737,0.583c-0.364,0.364-0.522,1.093-0.522,2.162v1.482h4.166v4.397h-4.166v16.678H19.63V21.78h-3.097
				V17.383z"/>
		</g>
	</g>
</g>
</svg>